<svg xmlns="http://www.w3.org/2000/svg" width="24" height="24" fill="none" viewBox="0 0 24 24">
  <g clip-path="url(#a)">
    <path fill="#000" d="M20.05 11H3.95a.95.95 0 0 0-.95.95v.1c0 .525.425.95.95.95h16.1a.95.95 0 0 0 .95-.95v-.1a.95.95 0 0 0-.95-.95Zm0 5H3.95a.95.95 0 0 0-.95.95v.1c0 .525.425.95.95.95h16.1a.95.95 0 0 0 .95-.95v-.1a.95.95 0 0 0-.95-.95Zm0-10H3.95a.95.95 0 0 0-.95.95v.1c0 .525.425.95.95.95h16.1a.95.95 0 0 0 .95-.95v-.1a.95.95 0 0 0-.95-.95Z"/>
  </g>
  <defs>
    <clipPath id="a">
      <path fill="#fff" d="M0 0h24v24H0z"/>
    </clipPath>
  </defs>
</svg>
