<svg width="0" height="0" class="hidden">
  <symbol xmlns="http://www.w3.org/2000/svg" fill="none" viewBox="0 0 24 24" id="arrow-back-outline">
    <g clip-path="url(#a)">
      <path fill="#000" d="M19 11H7.14l3.63-4.36a1.001 1.001 0 0 0-1.54-1.28l-5 6a1.191 1.191 0 0 0-.09.15c0 .05 0 .08-.07.13A1 1 0 0 0 4 12a1 1 0 0 0 .07.36c0 .05 0 .08.07.13.026.052.056.102.09.15l5 6A1 1 0 0 0 10 19a1 1 0 0 0 .77-1.64L7.14 13H19a1 1 0 0 0 0-2Z"></path>
    </g>
    <defs>
      <clipPath id="a">
        <path fill="#fff" d="M0 0h24v24H0z"></path>
      </clipPath>
    </defs>
  </symbol>
  <symbol xmlns="http://www.w3.org/2000/svg" fill="none" viewBox="0 0 24 24" id="arrow-forward-outline">
    <g clip-path="url(#a)">
      <path fill="#000" d="M5 13h11.86l-3.63 4.36a1 1 0 1 0 1.54 1.28l5-6c.034-.048.064-.098.09-.15 0-.05.05-.08.07-.13A1 1 0 0 0 20 12a1 1 0 0 0-.07-.36c0-.05-.05-.08-.07-.13a1.198 1.198 0 0 0-.09-.15l-5-6a1 1 0 0 0-1.41-.13.999.999 0 0 0-.13 1.41L16.86 11H5a1 1 0 0 0 0 2Z"></path>
    </g>
    <defs>
      <clipPath id="a">
        <path fill="#fff" d="M0 0h24v24H0z"></path>
      </clipPath>
    </defs>
  </symbol>
  <symbol xmlns="http://www.w3.org/2000/svg" fill="none" viewBox="0 0 24 24" id="arrow-ios-back">
    <g clip-path="url(#a)">
      <path fill="#000" d="M13.83 19a1 1 0 0 1-.78-.37l-4.83-6a1 1 0 0 1 0-1.27l5-6a1.001 1.001 0 1 1 1.54 1.28L10.29 12l4.32 5.36a1 1 0 0 1-.78 1.64Z"></path>
    </g>
    <defs>
      <clipPath id="a">
        <path fill="#fff" d="M0 0h24v24H0z"></path>
      </clipPath>
    </defs>
  </symbol>
  <symbol xmlns="http://www.w3.org/2000/svg" fill="none" viewBox="0 0 24 24" id="arrow-ios-back-outline">
    <g clip-path="url(#a)">
      <path fill="#000" d="M13.83 19a1 1 0 0 1-.78-.37l-4.83-6a1 1 0 0 1 0-1.27l5-6a1.001 1.001 0 0 1 1.54 1.28L10.29 12l4.32 5.36a1 1 0 0 1-.78 1.64Z"></path>
    </g>
    <defs>
      <clipPath id="a">
        <path fill="#fff" d="M0 0h24v24H0z"></path>
      </clipPath>
    </defs>
  </symbol>
  <symbol xmlns="http://www.w3.org/2000/svg" fill="none" viewBox="0 0 24 24" id="arrow-ios-Down-outline">
    <g clip-path="url(#a)">
      <path fill="#000" d="M5.514 9.458a1 1 0 0 1 1.64-.77l5.36 4.48 5.37-4.32a1 1 0 0 1 1.41.15 1 1 0 0 1-.15 1.46l-6 4.83a1 1 0 0 1-1.27 0l-6-5a1 1 0 0 1-.36-.83Z"></path>
    </g>
    <defs>
      <clipPath id="a">
        <path fill="#fff" d="M0 0h24v24H0z"></path>
      </clipPath>
    </defs>
  </symbol>
  <symbol xmlns="http://www.w3.org/2000/svg" fill="none" viewBox="0 0 24 24" id="arrow-ios-forward">
    <g clip-path="url(#a)">
      <path fill="#000" d="M10 19a1 1 0 0 1-.77-1.64L13.71 12 9.39 6.63a1 1 0 0 1 .15-1.41 1 1 0 0 1 1.46.15l4.83 6a1 1 0 0 1 0 1.27l-5 6A1 1 0 0 1 10 19Z"></path>
    </g>
    <defs>
      <clipPath id="a">
        <path fill="#fff" d="M0 0h24v24H0z"></path>
      </clipPath>
    </defs>
  </symbol>
  <symbol xmlns="http://www.w3.org/2000/svg" fill="none" viewBox="0 0 24 24" id="arrow-ios-forward-outline">
    <g clip-path="url(#a)">
      <path fill="#000" d="M10 19a1 1 0 0 1-.77-1.64L13.71 12 9.39 6.63a1 1 0 0 1 .15-1.41 1 1 0 0 1 1.46.15l4.83 6a1 1 0 0 1 0 1.27l-5 6A1 1 0 0 1 10 19Z"></path>
    </g>
    <defs>
      <clipPath id="a">
        <path fill="#fff" d="M0 0h24v24H0z"></path>
      </clipPath>
    </defs>
  </symbol>
  <symbol xmlns="http://www.w3.org/2000/svg" fill="none" viewBox="0 0 24 24" id="arrow-ios-Up">
    <g clip-path="url(#a)">
      <path fill="#000" d="M19.542 14.514a1.001 1.001 0 0 1-1.64.77l-5.36-4.48-5.37 4.32a1 1 0 0 1-1.41-.15 1 1 0 0 1 .15-1.46l6-4.83a1 1 0 0 1 1.27 0l6 5a1 1 0 0 1 .36.83Z"></path>
    </g>
    <defs>
      <clipPath id="a">
        <path fill="#fff" d="M0 0h24v24H0z"></path>
      </clipPath>
    </defs>
  </symbol>
  <symbol xmlns="http://www.w3.org/2000/svg" fill="none" viewBox="0 0 24 24" id="Block">
    <g clip-path="url(#a)">
      <path fill="#000" d="M12 2a10 10 0 1 0 0 20 10 10 0 0 0 0-20Zm0 18a8 8 0 1 1 0-16 8 8 0 0 1 0 16Z"></path>
      <path stroke="#000" stroke-width="2.3" d="m7.043 19.362 10-15"></path>
    </g>
    <defs>
      <clipPath id="a">
        <path fill="#fff" d="M0 0h24v24H0z"></path>
      </clipPath>
    </defs>
  </symbol>
  <symbol xmlns="http://www.w3.org/2000/svg" fill="none" viewBox="0 0 24 24" id="bookmark">
    <g clip-path="url(#a)">
      <path fill="#000" d="M6 21a1 1 0 0 1-.863-.496A1 1 0 0 1 5 20V5.33A2.28 2.28 0 0 1 7.2 3h9.6A2.28 2.28 0 0 1 19 5.33V20a1 1 0 0 1-1.5.86l-5.67-3.21-5.33 3.2A1 1 0 0 1 6 21Z"></path>
    </g>
    <defs>
      <clipPath id="a">
        <path fill="#fff" d="M0 0h24v24H0z"></path>
      </clipPath>
    </defs>
  </symbol>
  <symbol xmlns="http://www.w3.org/2000/svg" fill="none" viewBox="0 0 24 24" id="bookmark-outline">
    <g clip-path="url(#a)">
      <path fill="#000" d="M6.09 21.06a1 1 0 0 1-1-1L4.94 5.4a2.26 2.26 0 0 1 2.18-2.35L16.71 3a2.27 2.27 0 0 1 2.23 2.31l.14 14.66a1 1 0 0 1-.49.87 1 1 0 0 1-1 0l-5.7-3.16-5.29 3.23a1.2 1.2 0 0 1-.51.15Zm5.76-5.55a1.1 1.1 0 0 1 .5.12l4.71 2.61-.12-12.95c0-.2-.13-.34-.21-.33l-9.6.09c-.08 0-.19.13-.19.33l.12 12.9 4.28-2.63a1.06 1.06 0 0 1 .51-.14Z"></path>
    </g>
    <defs>
      <clipPath id="a">
        <path fill="#fff" d="M0 0h24v24H0z"></path>
      </clipPath>
    </defs>
  </symbol>
  <symbol xmlns="http://www.w3.org/2000/svg" fill="none" viewBox="0 0 24 24" id="calendar">
    <g clip-path="url(#a)">
      <path fill="#000" d="M18 4h-1V3a1 1 0 0 0-2 0v1H9V3a1 1 0 0 0-2 0v1H6a3 3 0 0 0-3 3v12a3 3 0 0 0 3 3h12a3 3 0 0 0 3-3V7a3 3 0 0 0-3-3ZM8 17a1 1 0 1 1 0-2 1 1 0 0 1 0 2Zm8 0h-4a1 1 0 0 1 0-2h4a1 1 0 0 1 0 2Zm3-6H5V7a1 1 0 0 1 1-1h1v1a1 1 0 0 0 2 0V6h6v1a1 1 0 0 0 2 0V6h1a1 1 0 0 1 1 1v4Z"></path>
    </g>
    <defs>
      <clipPath id="a">
        <path fill="#fff" d="M0 0h24v24H0z"></path>
      </clipPath>
    </defs>
  </symbol>
  <symbol xmlns="http://www.w3.org/2000/svg" fill="none" viewBox="0 0 24 24" id="calendar-outline">
    <g clip-path="url(#a)">
      <path fill="#000" d="M18 4h-1V3a1 1 0 0 0-2 0v1H9V3a1 1 0 0 0-2 0v1H6a3 3 0 0 0-3 3v12a3 3 0 0 0 3 3h12a3 3 0 0 0 3-3V7a3 3 0 0 0-3-3ZM6 6h1v1a1 1 0 0 0 2 0V6h6v1a1 1 0 0 0 2 0V6h1a1 1 0 0 1 1 1v4H5V7a1 1 0 0 1 1-1Zm12 14H6a1 1 0 0 1-1-1v-6h14v6a1 1 0 0 1-1 1Z"></path>
      <path fill="#000" d="M8 17a1 1 0 1 0 0-2 1 1 0 0 0 0 2Zm8-2h-4a1 1 0 0 0 0 2h4a1 1 0 0 0 0-2Z"></path>
    </g>
    <defs>
      <clipPath id="a">
        <path fill="#fff" d="M0 0h24v24H0z"></path>
      </clipPath>
    </defs>
  </symbol>
  <symbol xmlns="http://www.w3.org/2000/svg" fill="none" viewBox="0 0 24 24" id="close">
    <g clip-path="url(#a)">
      <path fill="#000" d="m13.41 12 4.3-4.29a1.004 1.004 0 1 0-1.42-1.42L12 10.59l-4.29-4.3a1.004 1.004 0 0 0-1.42 1.42l4.3 4.29-4.3 4.29a1 1 0 0 0 .325 1.639 1 1 0 0 0 1.095-.219l4.29-4.3 4.29 4.3a1.002 1.002 0 0 0 1.639-.325 1 1 0 0 0-.219-1.095L13.41 12Z"></path>
    </g>
    <defs>
      <clipPath id="a">
        <path fill="#fff" d="M0 0h24v24H0z"></path>
      </clipPath>
    </defs>
  </symbol>
  <symbol xmlns="http://www.w3.org/2000/svg" fill="none" viewBox="0 0 24 24" id="close-outline">
    <g clip-path="url(#a)">
      <path fill="#000" d="m13.41 12 4.3-4.29a1.004 1.004 0 1 0-1.42-1.42L12 10.59l-4.29-4.3a1.004 1.004 0 0 0-1.42 1.42l4.3 4.29-4.3 4.29a1 1 0 0 0 .325 1.639 1 1 0 0 0 1.095-.219l4.29-4.3 4.29 4.3a1.002 1.002 0 0 0 1.639-.325 1 1 0 0 0-.219-1.095L13.41 12Z"></path>
    </g>
    <defs>
      <clipPath id="a">
        <path fill="#fff" d="M0 0h24v24H0z"></path>
      </clipPath>
    </defs>
  </symbol>
  <symbol xmlns="http://www.w3.org/2000/svg" fill="none" viewBox="0 0 24 24" id="color-palette-outline">
    <g clip-path="url(#a)">
      <path fill="#000" d="M19.54 5.08A10.609 10.609 0 0 0 11.91 2a10 10 0 1 0-.05 20 2.58 2.58 0 0 0 2.53-1.89 2.52 2.52 0 0 0-.57-2.28.5.5 0 0 1 .37-.83h1.65A6.15 6.15 0 0 0 22 11.33a8.48 8.48 0 0 0-2.46-6.25ZM15.88 15h-1.65a2.49 2.49 0 0 0-1.87 4.15.49.49 0 0 1 .12.49c-.05.21-.28.34-.59.36a8 8 0 0 1-7.82-9.11A8.1 8.1 0 0 1 11.92 4H12a8.47 8.47 0 0 1 6.1 2.48 6.5 6.5 0 0 1 1.9 4.77A4.17 4.17 0 0 1 15.88 15Z"></path>
      <path fill="#000" d="M12 8a1.5 1.5 0 1 0 0-3 1.5 1.5 0 0 0 0 3Zm3.25-.8a1.5 1.5 0 1 0 1.501 2.598A1.5 1.5 0 0 0 15.25 7.2Zm-6.5 0a1.5 1.5 0 1 0-1.498 2.6A1.5 1.5 0 0 0 8.75 7.2Zm-2.59 4.06a1.5 1.5 0 1 0 2.08.4 1.49 1.49 0 0 0-2.08-.4Z"></path>
    </g>
    <defs>
      <clipPath id="a">
        <path fill="#fff" d="M0 0h24v24H0z"></path>
      </clipPath>
    </defs>
  </symbol>
  <symbol xmlns="http://www.w3.org/2000/svg" fill="none" viewBox="0 0 24 24" id="copy">
    <g clip-path="url(#a)">
      <path fill="#000" d="M18 9h-3V5.67A2.68 2.68 0 0 0 12.33 3H5.67A2.68 2.68 0 0 0 3 5.67v6.66A2.68 2.68 0 0 0 5.67 15H9v3a3 3 0 0 0 3 3h6a3 3 0 0 0 3-3v-6a3 3 0 0 0-3-3Zm-9 3v1H5.67a.67.67 0 0 1-.67-.67V5.67A.67.67 0 0 1 5.67 5h6.66a.67.67 0 0 1 .67.67V9h-1a3 3 0 0 0-3 3Z"></path>
    </g>
    <defs>
      <clipPath id="a">
        <path fill="#fff" d="M0 0h24v24H0z"></path>
      </clipPath>
    </defs>
  </symbol>
  <symbol xmlns="http://www.w3.org/2000/svg" fill="none" viewBox="0 0 24 24" id="copy-outline">
    <g clip-path="url(#a)">
      <path fill="#000" d="M18 21h-6a3 3 0 0 1-3-3v-6a3 3 0 0 1 3-3h6a3 3 0 0 1 3 3v6a3 3 0 0 1-3 3Zm-6-10a1 1 0 0 0-1 1v6a1 1 0 0 0 1 1h6a1 1 0 0 0 1-1v-6a1 1 0 0 0-1-1h-6Z"></path>
      <path fill="#000" d="M9.73 15H5.67A2.68 2.68 0 0 1 3 12.33V5.67A2.68 2.68 0 0 1 5.67 3h6.66A2.68 2.68 0 0 1 15 5.67V9.4h-2V5.67a.67.67 0 0 0-.67-.67H5.67a.67.67 0 0 0-.67.67v6.66a.67.67 0 0 0 .67.67h4.06v2Z"></path>
    </g>
    <defs>
      <clipPath id="a">
        <path fill="#fff" d="M0 0h24v24H0z"></path>
      </clipPath>
    </defs>
  </symbol>
  <symbol xmlns="http://www.w3.org/2000/svg" fill="none" viewBox="0 0 24 24" id="credit-card">
    <g clip-path="url(#a)">
      <path fill="#000" d="M19 5H5a3 3 0 0 0-3 3v8a3 3 0 0 0 3 3h14a3 3 0 0 0 3-3V8a3 3 0 0 0-3-3Zm-8 10H7a1 1 0 0 1 0-2h4a1 1 0 0 1 0 2Zm6 0h-2a1 1 0 0 1 0-2h2a1 1 0 0 1 0 2Zm3-6H4V8a1 1 0 0 1 1-1h14a1 1 0 0 1 1 1v1Z"></path>
    </g>
    <defs>
      <clipPath id="a">
        <path fill="#fff" d="M0 0h24v24H0z"></path>
      </clipPath>
    </defs>
  </symbol>
  <symbol xmlns="http://www.w3.org/2000/svg" fill="none" viewBox="0 0 24 24" id="credit-card-outline">
    <g clip-path="url(#a)">
      <path fill="#000" d="M19 5H5a3 3 0 0 0-3 3v8a3 3 0 0 0 3 3h14a3 3 0 0 0 3-3V8a3 3 0 0 0-3-3ZM4 8a1 1 0 0 1 1-1h14a1 1 0 0 1 1 1v1H4V8Zm16 8a1 1 0 0 1-1 1H5a1 1 0 0 1-1-1v-5h16v5Z"></path>
      <path fill="#000" d="M7 15h4a1 1 0 0 0 0-2H7a1 1 0 0 0 0 2Zm8 0h2a1 1 0 0 0 0-2h-2a1 1 0 0 0 0 2Z"></path>
    </g>
    <defs>
      <clipPath id="a">
        <path fill="#fff" d="M0 0h24v24H0z"></path>
      </clipPath>
    </defs>
  </symbol>
  <symbol xmlns="http://www.w3.org/2000/svg" fill="none" viewBox="0 0 24 24" id="edit-2">
    <g clip-path="url(#a)">
      <path fill="#000" d="M19 20H5a1 1 0 0 0 0 2h14a1 1 0 0 0 0-2ZM5 18h.09l4.17-.38a2 2 0 0 0 1.21-.57l9-9a1.92 1.92 0 0 0-.07-2.71L16.66 2.6A2 2 0 0 0 14 2.53l-9 9a2 2 0 0 0-.57 1.21L4 16.91A1 1 0 0 0 5 18ZM15.27 4 18 6.73l-2 1.95L13.32 6l1.95-2Z"></path>
    </g>
    <defs>
      <clipPath id="a">
        <path fill="#fff" d="M0 0h24v24H0z"></path>
      </clipPath>
    </defs>
  </symbol>
  <symbol xmlns="http://www.w3.org/2000/svg" fill="none" viewBox="0 0 24 24" id="edit-2-outline">
    <g clip-path="url(#a)">
      <path fill="#000" d="M19 20H5a1 1 0 0 0 0 2h14a1 1 0 0 0 0-2ZM5 18h.09l4.17-.38a2 2 0 0 0 1.21-.57l9-9a1.92 1.92 0 0 0-.07-2.71L16.66 2.6A2 2 0 0 0 14 2.53l-9 9a2 2 0 0 0-.57 1.21L4 16.91A1 1 0 0 0 5 18ZM15.27 4 18 6.73l-2 1.95L13.32 6l1.95-2Zm-8.9 8.91L12 7.32l2.7 2.7-5.6 5.6-3 .28.27-2.99Z"></path>
    </g>
    <defs>
      <clipPath id="a">
        <path fill="#fff" d="M0 0h24v24H0z"></path>
      </clipPath>
    </defs>
  </symbol>
  <symbol xmlns="http://www.w3.org/2000/svg" fill="none" viewBox="0 0 24 24" id="email">
    <g clip-path="url(#a)">
      <path fill="#000" d="M19 4H5a3 3 0 0 0-3 3v10a3 3 0 0 0 3 3h14a3 3 0 0 0 3-3V7a3 3 0 0 0-3-3Zm0 2-6.5 4.47a1 1 0 0 1-1 0L5 6h14Z"></path>
    </g>
    <defs>
      <clipPath id="a">
        <path fill="#fff" d="M0 0h24v24H0z"></path>
      </clipPath>
    </defs>
  </symbol>
  <symbol xmlns="http://www.w3.org/2000/svg" fill="none" viewBox="0 0 24 24" id="email-outline">
    <g clip-path="url(#a)">
      <path fill="#000" d="M19 4H5a3 3 0 0 0-3 3v10a3 3 0 0 0 3 3h14a3 3 0 0 0 3-3V7a3 3 0 0 0-3-3Zm-.67 2L12 10.75 5.67 6h12.66ZM19 18H5a1 1 0 0 1-1-1V7.25l7.4 5.55a1 1 0 0 0 1.2 0L20 7.25V17a1 1 0 0 1-1 1Z"></path>
    </g>
    <defs>
      <clipPath id="a">
        <path fill="#fff" d="M0 0h24v24H0z"></path>
      </clipPath>
    </defs>
  </symbol>
  <symbol xmlns="http://www.w3.org/2000/svg" fill="none" viewBox="0 0 24 24" id="expand">
    <g clip-path="url(#a)">
      <path fill="#000" d="M20 5a1 1 0 0 0-1-1h-5a1 1 0 1 0 0 2h2.57l-3.28 3.29a1 1 0 0 0 .325 1.639 1 1 0 0 0 1.095-.219L18 7.42V10a1 1 0 0 0 2 0V5Zm-9.29 8.29a1.002 1.002 0 0 0-1.42 0L6 16.57V14a1 1 0 1 0-2 0v5a1 1 0 0 0 1 1h5a1 1 0 0 0 0-2H7.42l3.29-3.29a1.002 1.002 0 0 0 0-1.42Z"></path>
    </g>
    <defs>
      <clipPath id="a">
        <path fill="#fff" d="M0 0h24v24H0z"></path>
      </clipPath>
    </defs>
  </symbol>
  <symbol xmlns="http://www.w3.org/2000/svg" fill="none" viewBox="0 0 24 24" id="expand-outline">
    <g clip-path="url(#a)">
      <path fill="#000" d="M20 5a1 1 0 0 0-1-1h-5a1 1 0 1 0 0 2h2.57l-3.28 3.29a1 1 0 0 0 .325 1.639 1 1 0 0 0 1.095-.219L18 7.42V10a1 1 0 0 0 2 0V5Zm-9.29 8.29a1.002 1.002 0 0 0-1.42 0L6 16.57V14a1 1 0 1 0-2 0v5a1 1 0 0 0 1 1h5a1 1 0 0 0 0-2H7.42l3.29-3.29a1.002 1.002 0 0 0 0-1.42Z"></path>
    </g>
    <defs>
      <clipPath id="a">
        <path fill="#fff" d="M0 0h24v24H0z"></path>
      </clipPath>
    </defs>
  </symbol>
  <symbol xmlns="http://www.w3.org/2000/svg" fill="none" viewBox="0 0 24 24" id="eye">
    <g clip-path="url(#a)">
      <path fill="#000" d="M12 13.5a1.5 1.5 0 1 0 0-3 1.5 1.5 0 0 0 0 3Z"></path>
      <path fill="#000" d="M21.87 11.5c-.64-1.11-4.16-6.68-10.14-6.5-5.53.14-8.73 5-9.6 6.5a1 1 0 0 0 0 1c.63 1.09 4 6.5 9.89 6.5h.25c5.53-.14 8.74-5 9.6-6.5a1 1 0 0 0 0-1Zm-9.87 4a3.5 3.5 0 1 1 0-7 3.5 3.5 0 0 1 0 7Z"></path>
    </g>
    <defs>
      <clipPath id="a">
        <path fill="#fff" d="M0 0h24v24H0z"></path>
      </clipPath>
    </defs>
  </symbol>
  <symbol xmlns="http://www.w3.org/2000/svg" fill="none" viewBox="0 0 24 24" id="eye-off">
    <g clip-path="url(#a)">
      <path fill="#000" d="M12 13.5a1.5 1.5 0 1 0 0-3 1.5 1.5 0 0 0 0 3Zm3.29 4.62L14 16.78l-.07-.07-1.27-1.27A3.501 3.501 0 0 1 8.5 12a4.07 4.07 0 0 1 .06-.61l-2-2L5 7.87a15.89 15.89 0 0 0-2.87 3.63 1 1 0 0 0 0 1c.63 1.09 4 6.5 9.89 6.5h.25a9.48 9.48 0 0 0 3.23-.67l-.21-.21ZM8.59 5.76l2.8 2.8A4.07 4.07 0 0 1 12 8.5a3.5 3.5 0 0 1 3.5 3.5 4.066 4.066 0 0 1-.06.61l2.68 2.68.84.84a15.89 15.89 0 0 0 2.91-3.63 1 1 0 0 0 0-1c-.64-1.11-4.16-6.68-10.14-6.5a9.48 9.48 0 0 0-3.23.67l.09.09Z"></path>
      <path fill="#000" d="M20.71 19.29 19.41 18l-2-2-9.52-9.53L6.42 5 4.71 3.29a1.004 1.004 0 1 0-1.42 1.42L5.53 7l1.75 1.7 7.31 7.3.07.07L16 17.41l.59.59 2.7 2.71a1.002 1.002 0 0 0 1.639-.325 1 1 0 0 0-.219-1.095Z"></path>
    </g>
    <defs>
      <clipPath id="a">
        <path fill="#fff" d="M0 0h24v24H0z"></path>
      </clipPath>
    </defs>
  </symbol>
  <symbol xmlns="http://www.w3.org/2000/svg" fill="none" viewBox="0 0 24 24" id="eye-off-outline">
    <g clip-path="url(#a)">
      <path fill="#000" d="M4.71 3.29a1.004 1.004 0 1 0-1.42 1.42l5.63 5.63a3.5 3.5 0 0 0 4.74 4.74l5.63 5.63a1.002 1.002 0 0 0 1.639-.325 1 1 0 0 0-.219-1.095l-16-16ZM12 13.5a1.5 1.5 0 0 1-1.5-1.5v-.07l1.56 1.56-.06.01Z"></path>
      <path fill="#000" d="M12.22 17c-4.3.1-7.12-3.59-8-5 .626-1 1.38-1.914 2.24-2.72L5 7.87a15.89 15.89 0 0 0-2.87 3.63 1 1 0 0 0 0 1c.63 1.09 4 6.5 9.89 6.5h.25a9.48 9.48 0 0 0 3.23-.67l-1.58-1.58a7.739 7.739 0 0 1-1.7.25Zm9.65-5.5c-.64-1.11-4.17-6.68-10.14-6.5a9.48 9.48 0 0 0-3.23.67l1.58 1.58a7.74 7.74 0 0 1 1.7-.25c4.29-.11 7.11 3.59 8 5a13.699 13.699 0 0 1-2.29 2.72L19 16.13a15.89 15.89 0 0 0 2.91-3.63 1 1 0 0 0-.04-1Z"></path>
    </g>
    <defs>
      <clipPath id="a">
        <path fill="#fff" d="M0 0h24v24H0z"></path>
      </clipPath>
    </defs>
  </symbol>
  <symbol xmlns="http://www.w3.org/2000/svg" fill="none" viewBox="0 0 24 24" id="eye-outline">
    <g clip-path="url(#a)">
      <path fill="#000" d="M21.87 11.5c-.64-1.11-4.16-6.68-10.14-6.5-5.53.14-8.73 5-9.6 6.5a1 1 0 0 0 0 1c.63 1.09 4 6.5 9.89 6.5h.25c5.53-.14 8.74-5 9.6-6.5a1 1 0 0 0 0-1ZM12.22 17c-4.31.1-7.12-3.59-8-5 1-1.61 3.61-4.9 7.61-5 4.29-.11 7.11 3.59 8 5-1.03 1.61-3.61 4.9-7.61 5Z"></path>
      <path fill="#000" d="M12 8.5a3.5 3.5 0 1 0 0 7 3.5 3.5 0 0 0 0-7Zm0 5a1.5 1.5 0 1 1 0-3 1.5 1.5 0 0 1 0 3Z"></path>
    </g>
    <defs>
      <clipPath id="a">
        <path fill="#fff" d="M0 0h24v24H0z"></path>
      </clipPath>
    </defs>
  </symbol>
  <symbol xmlns="http://www.w3.org/2000/svg" fill="none" viewBox="0 0 24 24" id="facebook-svgrepo-com (1) 1">
    <g clip-path="url(#a)">
      <path fill="#fff" d="M8 4h13v20H8z"></path>
      <path fill="#475993" d="M20.766 0H3.234A3.234 3.234 0 0 0 0 3.234v17.532A3.234 3.234 0 0 0 3.234 24h8.647l.014-8.576H9.667a.526.526 0 0 1-.525-.524l-.011-2.765a.526.526 0 0 1 .526-.527h2.224V8.937c0-3.1 1.893-4.788 4.658-4.788h2.27c.29 0 .525.235.525.525v2.331c0 .29-.235.526-.525.526h-1.393c-1.504 0-1.795.715-1.795 1.764v2.313h3.305c.315 0 .559.275.522.587l-.328 2.765a.526.526 0 0 1-.522.464h-2.962L15.62 24h5.145A3.234 3.234 0 0 0 24 20.766V3.234A3.234 3.234 0 0 0 20.766 0Z"></path>
    </g>
    <defs>
      <clipPath id="a">
        <path fill="#fff" d="M0 0h24v24H0z"></path>
      </clipPath>
    </defs>
  </symbol>
  <symbol xmlns="http://www.w3.org/2000/svg" fill="none" viewBox="0 0 24 24" id="funnel-outline 1">
    <g clip-path="url(#a)">
      <path fill="#000" d="M13.9 22a1 1 0 0 1-.6-.2l-4-3.05a1 1 0 0 1-.39-.8v-3.27l-4.8-9.22A1 1 0 0 1 5 4h14a1 1 0 0 1 .86.49 1 1 0 0 1 0 1l-5 9.21V21a1 1 0 0 1-.55.9 1 1 0 0 1-.41.1Zm-3-4.54 2 1.53v-4.55A1 1 0 0 1 13 14l4.3-8H6.64l4.13 8a1 1 0 0 1 .11.46l.02 3Z"></path>
    </g>
    <defs>
      <clipPath id="a">
        <path fill="#fff" d="M0 0h24v24H0z"></path>
      </clipPath>
    </defs>
  </symbol>
  <symbol xmlns="http://www.w3.org/2000/svg" fill="none" viewBox="0 0 24 24" id="github-svgrepo-com (3) 1">
    <g clip-path="url(#a)">
      <path fill="#000" d="M11.809.48h.09c2.152 0 4.166.588 5.89 1.613l-.052-.03a11.857 11.857 0 0 1 4.271 4.245l.03.056a11.695 11.695 0 0 1 1.588 5.92c0 5.189-3.344 9.6-7.994 11.19l-.084.026a.695.695 0 0 1-.616-.108h.002a.599.599 0 0 1-.2-.447v-.014.002l.008-1.177c.005-.754.007-1.444.007-2.068a2.73 2.73 0 0 0-.8-2.183 10.465 10.465 0 0 0 1.65-.293l-.073.016a6.244 6.244 0 0 0 1.476-.616l-.03.016c.487-.269.9-.61 1.24-1.015l.006-.007c.357-.457.636-.995.806-1.58l.009-.033a7.6 7.6 0 0 0 .316-2.19l-.001-.13v.006-.069a4.54 4.54 0 0 0-1.217-3.1l.002.002c.162-.422.255-.91.255-1.42A4.08 4.08 0 0 0 18 5.351l.01.025a2.01 2.01 0 0 0-1.258.174l.013-.005a8.274 8.274 0 0 0-1.452.697l.036-.021-.584.368c-.885-.253-1.902-.399-2.952-.399s-2.067.146-3.03.419l.077-.02a13.82 13.82 0 0 0-.654-.415 8.739 8.739 0 0 0-1.221-.571l-.063-.022a2.087 2.087 0 0 0-1.318-.205l.012-.002a4.031 4.031 0 0 0-.377 1.717c0 .51.093.998.264 1.448l-.01-.028a4.534 4.534 0 0 0-1.215 3.098v.073-.004.125c0 .777.115 1.528.33 2.234l-.014-.055c.181.618.457 1.154.816 1.626l-.009-.013c.34.418.75.761 1.216 1.02l.021.01c.415.242.896.447 1.402.59l.044.01c.448.12.983.218 1.531.273l.045.004c-.414.41-.69.96-.753 1.572l-.001.012a2.94 2.94 0 0 1-.671.226l-.02.004a4.25 4.25 0 0 1-.816.077h-.064.003a1.807 1.807 0 0 1-1.013-.334l.006.004a2.727 2.727 0 0 1-.846-.947l-.006-.014a2.5 2.5 0 0 0-.738-.794l-.008-.006a2.236 2.236 0 0 0-.745-.365l-.016-.004-.307-.046a1.007 1.007 0 0 0-.452.071l.007-.003c-.082.047-.108.106-.077.177a.844.844 0 0 0 .14.216H3.28c.059.068.125.129.197.182l.003.002.107.076c.272.142.496.34.666.58l.004.005c.183.227.344.485.474.76l.01.023.153.354c.13.386.365.708.672.941l.005.004a2.39 2.39 0 0 0 1.015.46l.015.001c.317.061.685.1 1.062.107h.006c.044.002.094.002.144.002.251 0 .497-.02.737-.06l-.026.005.353-.062c0 .39.003.844.008 1.362l.007.838v.013a.6.6 0 0 1-.2.448.692.692 0 0 1-.62.106l.005.001C3.347 21.875.006 17.464.006 12.274c0-2.178.587-4.218 1.614-5.97l-.031.055a11.857 11.857 0 0 1 4.245-4.271l.056-.03A11.422 11.422 0 0 1 11.72.48h.094-.005ZM4.475 17.44c.03-.072-.006-.134-.108-.185-.102-.03-.169-.02-.2.03-.03.072.005.134.108.185.092.062.159.051.2-.03Zm.477.523c.071-.052.061-.134-.031-.246-.102-.092-.184-.108-.246-.046-.071.05-.061.133.03.245.103.101.185.116.247.046Zm.46.69c.093-.07.093-.168 0-.291-.081-.133-.168-.164-.26-.092-.093.051-.093.143 0 .276.092.133.179.17.26.108Zm.646.647c.082-.082.061-.18-.062-.292-.123-.123-.225-.138-.307-.046-.092.082-.072.18.061.292.123.123.226.137.308.042v.004Zm.876.384c.03-.113-.036-.195-.2-.246-.153-.04-.25-.005-.291.108-.041.112.025.189.2.23.153.062.25.031.291-.092Zm.969.077c0-.133-.087-.19-.261-.17-.164 0-.246.057-.246.17 0 .133.087.19.261.169.164 0 .246-.057.246-.17Zm.892-.154c-.02-.113-.113-.159-.277-.138-.164.03-.235.107-.215.23.02.123.113.164.277.123.163-.04.234-.113.215-.215Z"></path>
    </g>
    <defs>
      <clipPath id="a">
        <path fill="#fff" d="M0 0h24v24H0z"></path>
      </clipPath>
    </defs>
  </symbol>
  <symbol xmlns="http://www.w3.org/2000/svg" fill="none" viewBox="0 0 24 24" id="google-svgrepo-com 1">
    <g clip-path="url(#a)">
      <path fill="#EA4335" d="M5.266 9.765A7.077 7.077 0 0 1 12 4.909c1.69 0 3.218.6 4.418 1.582L19.91 3C17.782 1.145 15.055 0 12 0 7.27 0 3.198 2.698 1.24 6.65l4.026 3.115Z"></path>
      <path fill="#34A853" d="M16.04 18.013c-1.09.703-2.474 1.078-4.04 1.078a7.077 7.077 0 0 1-6.723-4.823l-4.04 3.067A11.965 11.965 0 0 0 12 24c2.933 0 5.735-1.043 7.834-3l-3.793-2.987Z"></path>
      <path fill="#4A90E2" d="M19.834 21c2.195-2.048 3.62-5.096 3.62-9 0-.71-.108-1.473-.272-2.182H12v4.636h6.436c-.317 1.56-1.17 2.767-2.395 3.559L19.834 21Z"></path>
      <path fill="#FBBC05" d="M5.277 14.268A7.12 7.12 0 0 1 4.909 12c0-.782.125-1.533.357-2.235L1.24 6.65A11.934 11.934 0 0 0 0 12c0 1.92.445 3.73 1.237 5.335l4.04-3.067Z"></path>
    </g>
    <defs>
      <clipPath id="a">
        <path fill="#fff" d="M0 0h24v24H0z"></path>
      </clipPath>
    </defs>
  </symbol>
  <symbol xmlns="http://www.w3.org/2000/svg" fill="none" viewBox="0 0 24 24" id="heart">
    <g clip-path="url(#a)">
      <path fill="#000" d="M12 21a1 1 0 0 1-.71-.29l-7.77-7.78a5.26 5.26 0 0 1 0-7.4 5.24 5.24 0 0 1 7.4 0L12 6.61l1.08-1.08a5.24 5.24 0 0 1 7.4 0 5.26 5.26 0 0 1 0 7.4l-7.77 7.78A1 1 0 0 1 12 21Z"></path>
    </g>
    <defs>
      <clipPath id="a">
        <path fill="#fff" d="M0 0h24v24H0z"></path>
      </clipPath>
    </defs>
  </symbol>
  <symbol xmlns="http://www.w3.org/2000/svg" fill="none" viewBox="0 0 24 24" id="heart-outline">
    <g clip-path="url(#a)">
      <path fill="#000" d="M12 21a1 1 0 0 1-.71-.29l-7.77-7.78a5.26 5.26 0 0 1 0-7.4 5.24 5.24 0 0 1 7.4 0L12 6.61l1.08-1.08a5.24 5.24 0 0 1 7.4 0 5.26 5.26 0 0 1 0 7.4l-7.77 7.78A1 1 0 0 1 12 21ZM7.22 6a3.2 3.2 0 0 0-2.28.94 3.24 3.24 0 0 0 0 4.57L12 18.58l7.06-7.07a3.24 3.24 0 0 0 0-4.57 3.32 3.32 0 0 0-4.56 0l-1.79 1.8a1 1 0 0 1-1.42 0L9.5 6.94A3.2 3.2 0 0 0 7.22 6Z"></path>
    </g>
    <defs>
      <clipPath id="a">
        <path fill="#fff" d="M0 0h24v24H0z"></path>
      </clipPath>
    </defs>
  </symbol>
  <symbol xmlns="http://www.w3.org/2000/svg" fill="none" viewBox="0 0 24 24" id="home">
    <g clip-path="url(#a)">
      <path fill="#000" d="M14 14h-4v7h4v-7Z"></path>
      <path fill="#000" d="M20.42 10.18 12.71 2.3a1.001 1.001 0 0 0-1.42 0l-7.71 7.89A2 2 0 0 0 3 11.62V20a2 2 0 0 0 1.89 2H8v-9a1 1 0 0 1 1-1h6a1 1 0 0 1 1 1v9h3.11A2 2 0 0 0 21 20v-8.38a2.07 2.07 0 0 0-.58-1.44Z"></path>
    </g>
    <defs>
      <clipPath id="a">
        <path fill="#fff" d="M0 0h24v24H0z"></path>
      </clipPath>
    </defs>
  </symbol>
  <symbol xmlns="http://www.w3.org/2000/svg" fill="none" viewBox="0 0 24 24" id="home-outline">
    <g clip-path="url(#a)">
      <path fill="#000" d="M20.42 10.18 12.71 2.3a1.001 1.001 0 0 0-1.42 0l-7.71 7.89A2 2 0 0 0 3 11.62V20a2 2 0 0 0 1.89 2h14.22A2 2 0 0 0 21 20v-8.38a2.07 2.07 0 0 0-.58-1.44ZM10 20v-6h4v6h-4Zm9 0h-3v-7a1 1 0 0 0-1-1H9a1 1 0 0 0-1 1v7H5v-8.42l7-7.15 7 7.19V20Z"></path>
    </g>
    <defs>
      <clipPath id="a">
        <path fill="#fff" d="M0 0h24v24H0z"></path>
      </clipPath>
    </defs>
  </symbol>
  <symbol xmlns="http://www.w3.org/2000/svg" fill="none" viewBox="0 0 24 24" id="image">
    <g clip-path="url(#a)">
      <path fill="#000" d="M18 3H6a3 3 0 0 0-3 3v12a3 3 0 0 0 3 3h12a3 3 0 0 0 3-3V6a3 3 0 0 0-3-3ZM6 5h12a1 1 0 0 1 1 1v8.36l-3.2-2.73a2.77 2.77 0 0 0-3.52 0L5 17.7V6a1 1 0 0 1 1-1Z"></path>
      <path fill="#000" d="M8 10a1.5 1.5 0 1 0 0-3 1.5 1.5 0 0 0 0 3Z"></path>
    </g>
    <defs>
      <clipPath id="a">
        <path fill="#fff" d="M0 0h24v24H0z"></path>
      </clipPath>
    </defs>
  </symbol>
  <symbol xmlns="http://www.w3.org/2000/svg" fill="none" viewBox="0 0 24 24" id="image-outline">
    <g clip-path="url(#a)">
      <path fill="#000" d="M18 3H6a3 3 0 0 0-3 3v12a3 3 0 0 0 3 3h12a3 3 0 0 0 3-3V6a3 3 0 0 0-3-3ZM6 5h12a1 1 0 0 1 1 1v8.36l-3.2-2.73a2.77 2.77 0 0 0-3.52 0L5 17.7V6a1 1 0 0 1 1-1Zm12 14H6.56l7-5.84a.78.78 0 0 1 .93 0L19 17v1a1 1 0 0 1-1 1Z"></path>
      <path fill="#000" d="M8 10a1.5 1.5 0 1 0 0-3 1.5 1.5 0 0 0 0 3Z"></path>
    </g>
    <defs>
      <clipPath id="a">
        <path fill="#fff" d="M0 0h24v24H0z"></path>
      </clipPath>
    </defs>
  </symbol>
  <symbol xmlns="http://www.w3.org/2000/svg" fill="none" viewBox="0 0 24 24" id="layers">
    <g clip-path="url(#a)">
      <path fill="#000" d="m3.24 7.29 8.52 4.63a.51.51 0 0 0 .48 0l8.52-4.63a.44.44 0 0 0-.05-.81L12.19 3a.5.5 0 0 0-.38 0L3.29 6.48a.44.44 0 0 0-.05.81Z"></path>
      <path fill="#000" d="m20.71 10.66-1.83-.78-6.64 3.61a.51.51 0 0 1-.48 0L5.12 9.88l-1.83.78a.48.48 0 0 0 0 .85l8.52 4.9a.46.46 0 0 0 .48 0l8.52-4.9a.48.48 0 0 0-.1-.85Z"></path>
      <path fill="#000" d="m20.71 15.1-1.56-.68-6.91 3.76a.51.51 0 0 1-.48 0l-6.91-3.76-1.56.68a.49.49 0 0 0 0 .87l8.52 5a.51.51 0 0 0 .48 0l8.52-5a.49.49 0 0 0-.1-.87Z"></path>
    </g>
    <defs>
      <clipPath id="a">
        <path fill="#fff" d="M0 0h24v24H0z"></path>
      </clipPath>
    </defs>
  </symbol>
  <symbol xmlns="http://www.w3.org/2000/svg" fill="none" viewBox="0 0 24 24" id="layers-outline">
    <g clip-path="url(#a)">
      <path fill="#000" d="M21 11.35a1 1 0 0 0-.61-.86l-2.15-.92 2.26-1.3a1 1 0 0 0 .5-.92 1 1 0 0 0-.61-.86l-8-3.41a1 1 0 0 0-.78 0l-8 3.41a1 1 0 0 0-.61.86 1 1 0 0 0 .5.92l2.26 1.3-2.15.92a1 1 0 0 0-.61.86 1 1 0 0 0 .5.92l2.26 1.3-2.15.92a1 1 0 0 0-.61.86 1 1 0 0 0 .5.92l8 4.6a1 1 0 0 0 1 0l8-4.6a1 1 0 0 0 .5-.92 1 1 0 0 0-.61-.86l-2.15-.92 2.26-1.3a1 1 0 0 0 .5-.92Zm-9-6.26 5.76 2.45L12 10.85 6.24 7.54 12 5.09Zm-.5 7.78a1 1 0 0 0 1 0l3.57-2 1.69.72L12 14.85l-5.76-3.31 1.69-.72 3.57 2.05Zm6.26 2.67L12 18.85l-5.76-3.31 1.69-.72 3.57 2.05a1 1 0 0 0 1 0l3.57-2.05 1.69.72Z"></path>
    </g>
    <defs>
      <clipPath id="a">
        <path fill="#fff" d="M0 0h24v24H0z"></path>
      </clipPath>
    </defs>
  </symbol>
  <symbol xmlns="http://www.w3.org/2000/svg" fill="none" viewBox="0 0 24 24" id="log-out">
    <g clip-path="url(#a)">
      <path fill="#000" d="M7 6a1 1 0 0 0 0-2H5a1 1 0 0 0-1 1v14a1 1 0 0 0 1 1h2a1 1 0 0 0 0-2H6V6h1Zm13.82 5.42-2.82-4a1 1 0 1 0-1.63 1.16L18.09 11H10a1 1 0 0 0 0 2h8l-1.8 2.4a1 1 0 0 0 1.6 1.2l3-4a1 1 0 0 0 .02-1.18Z"></path>
    </g>
    <defs>
      <clipPath id="a">
        <path fill="#fff" d="M0 0h24v24H0z"></path>
      </clipPath>
    </defs>
  </symbol>
  <symbol xmlns="http://www.w3.org/2000/svg" fill="none" viewBox="0 0 24 24" id="log-out-outline">
    <g clip-path="url(#a)">
      <path fill="#000" d="M7 6a1 1 0 0 0 0-2H5a1 1 0 0 0-1 1v14a1 1 0 0 0 1 1h2a1 1 0 0 0 0-2H6V6h1Zm13.82 5.42-2.82-4a1 1 0 1 0-1.63 1.16L18.09 11H10a1 1 0 0 0 0 2h8l-1.8 2.4a1 1 0 0 0 1.6 1.2l3-4a1 1 0 0 0 .02-1.18Z"></path>
    </g>
    <defs>
      <clipPath id="a">
        <path fill="#fff" d="M0 0h24v24H0z"></path>
      </clipPath>
    </defs>
  </symbol>
  <symbol xmlns="http://www.w3.org/2000/svg" fill="none" viewBox="0 0 24 24" id="maximize">
    <g clip-path="url(#a)">
      <path fill="#000" d="m20.71 19.29-3.4-3.39A7.92 7.92 0 0 0 19 11a8 8 0 1 0-8 8 7.92 7.92 0 0 0 4.9-1.69l3.39 3.4a1.002 1.002 0 0 0 1.639-.325 1 1 0 0 0-.219-1.095ZM13 12h-1v1a1 1 0 0 1-2 0v-1H9a1 1 0 0 1 0-2h1V9a1 1 0 0 1 2 0v1h1a1 1 0 0 1 0 2Z"></path>
    </g>
    <defs>
      <clipPath id="a">
        <path fill="#fff" d="M0 0h24v24H0z"></path>
      </clipPath>
    </defs>
  </symbol>
  <symbol xmlns="http://www.w3.org/2000/svg" fill="none" viewBox="0 0 24 24" id="maximize-outline">
    <g clip-path="url(#a)">
      <path fill="#000" d="m20.71 19.29-3.4-3.39A7.92 7.92 0 0 0 19 11a8 8 0 1 0-8 8 7.92 7.92 0 0 0 4.9-1.69l3.39 3.4a1.002 1.002 0 0 0 1.639-.325 1 1 0 0 0-.219-1.095ZM5 11a6 6 0 1 1 12 0 6 6 0 0 1-12 0Z"></path>
      <path fill="#000" d="M13 10h-1V9a1 1 0 0 0-2 0v1H9a1 1 0 0 0 0 2h1v1a1 1 0 0 0 2 0v-1h1a1 1 0 0 0 0-2Z"></path>
    </g>
    <defs>
      <clipPath id="a">
        <path fill="#fff" d="M0 0h24v24H0z"></path>
      </clipPath>
    </defs>
  </symbol>
  <symbol xmlns="http://www.w3.org/2000/svg" fill="none" viewBox="0 0 24 24" id="menu-outline">
    <g clip-path="url(#a)">
      <path fill="#000" d="M20.05 11H3.95a.95.95 0 0 0-.95.95v.1c0 .525.425.95.95.95h16.1a.95.95 0 0 0 .95-.95v-.1a.95.95 0 0 0-.95-.95Zm0 5H3.95a.95.95 0 0 0-.95.95v.1c0 .525.425.95.95.95h16.1a.95.95 0 0 0 .95-.95v-.1a.95.95 0 0 0-.95-.95Zm0-10H3.95a.95.95 0 0 0-.95.95v.1c0 .525.425.95.95.95h16.1a.95.95 0 0 0 .95-.95v-.1a.95.95 0 0 0-.95-.95Z"></path>
    </g>
    <defs>
      <clipPath id="a">
        <path fill="#fff" d="M0 0h24v24H0z"></path>
      </clipPath>
    </defs>
  </symbol>
  <symbol xmlns="http://www.w3.org/2000/svg" fill="none" viewBox="0 0 24 24" id="message-circle">
    <g clip-path="url(#a)">
      <path fill="#000" d="M19.07 4.93a10 10 0 0 0-16.28 11c.096.199.127.422.09.64L2 20.8a1 1 0 0 0 .605 1.13c.126.05.26.073.395.07h.2l4.28-.86a1.26 1.26 0 0 1 .64.09 10 10 0 0 0 11-16.28l-.05-.02ZM8 13a1 1 0 1 1 0-2 1 1 0 0 1 0 2Zm4 0a1 1 0 1 1 0-2 1 1 0 0 1 0 2Zm4 0a1 1 0 1 1 0-2 1 1 0 0 1 0 2Z"></path>
    </g>
    <defs>
      <clipPath id="a">
        <path fill="#fff" d="M0 0h24v24H0z"></path>
      </clipPath>
    </defs>
  </symbol>
  <symbol xmlns="http://www.w3.org/2000/svg" fill="none" viewBox="0 0 24 24" id="message-circle-outline">
    <g clip-path="url(#a)">
      <path fill="#000" d="M12 13a1 1 0 1 0 0-2 1 1 0 0 0 0 2Zm4 0a1 1 0 1 0 0-2 1 1 0 0 0 0 2Zm-8 0a1 1 0 1 0 0-2 1 1 0 0 0 0 2Z"></path>
      <path fill="#000" d="M19.07 4.93a10 10 0 0 0-16.28 11c.096.199.127.422.09.64L2 20.8a1 1 0 0 0 .605 1.13c.126.05.26.073.395.07h.2l4.28-.86a1.26 1.26 0 0 1 .64.09 10 10 0 0 0 11-16.28l-.05-.02Zm.83 8.36a8 8 0 0 1-11 6.08 3.26 3.26 0 0 0-1.25-.26 3.424 3.424 0 0 0-.56.05l-2.82.57.57-2.82a3.09 3.09 0 0 0-.21-1.81 8 8 0 0 1 9.826-10.72 8 8 0 0 1 5.444 8.91Z"></path>
    </g>
    <defs>
      <clipPath id="a">
        <path fill="#fff" d="M0 0h24v24H0z"></path>
      </clipPath>
    </defs>
  </symbol>
  <symbol xmlns="http://www.w3.org/2000/svg" fill="none" viewBox="0 0 24 24" id="mic">
    <g clip-path="url(#a)">
      <path fill="#000" d="M12 15a4 4 0 0 0 4-4V6a4 4 0 1 0-8 0v5a4 4 0 0 0 4 4Z"></path>
      <path fill="#000" d="M19 11a1 1 0 0 0-2 0 5 5 0 1 1-10 0 1 1 0 1 0-2 0 7 7 0 0 0 6 6.92V20H8.89a.89.89 0 0 0-.89.89v.22a.89.89 0 0 0 .89.89h6.22a.89.89 0 0 0 .89-.89v-.22a.89.89 0 0 0-.89-.89H13v-2.08A7 7 0 0 0 19 11Z"></path>
    </g>
    <defs>
      <clipPath id="a">
        <path fill="#fff" d="M0 0h24v24H0z"></path>
      </clipPath>
    </defs>
  </symbol>
  <symbol xmlns="http://www.w3.org/2000/svg" fill="none" viewBox="0 0 24 24" id="mic-outline">
    <g clip-path="url(#a)">
      <path fill="#000" d="M12 15a4 4 0 0 0 4-4V6a4 4 0 1 0-8 0v5a4 4 0 0 0 4 4Zm-2-9a2 2 0 1 1 4 0v5a2 2 0 0 1-4 0V6Z"></path>
      <path fill="#000" d="M19 11a1 1 0 0 0-2 0 5 5 0 1 1-10 0 1 1 0 1 0-2 0 7 7 0 0 0 6 6.92V20H8.89a.89.89 0 0 0-.89.89v.22a.89.89 0 0 0 .89.89h6.22a.89.89 0 0 0 .89-.89v-.22a.89.89 0 0 0-.89-.89H13v-2.08A7 7 0 0 0 19 11Z"></path>
    </g>
    <defs>
      <clipPath id="a">
        <path fill="#fff" d="M0 0h24v24H0z"></path>
      </clipPath>
    </defs>
  </symbol>
  <symbol xmlns="http://www.w3.org/2000/svg" fill="none" viewBox="0 0 24 24" id="more-horizontal">
    <g clip-path="url(#a)">
      <path fill="#000" d="M12 14a2 2 0 1 0 0-4 2 2 0 0 0 0 4Zm7 0a2 2 0 1 0 0-4 2 2 0 0 0 0 4ZM5 14a2 2 0 1 0 0-4 2 2 0 0 0 0 4Z"></path>
    </g>
    <defs>
      <clipPath id="a">
        <path fill="#fff" d="M0 0h24v24H0z"></path>
      </clipPath>
    </defs>
  </symbol>
  <symbol xmlns="http://www.w3.org/2000/svg" fill="none" viewBox="0 0 24 24" id="more-horizontal-outline">
    <g clip-path="url(#a)">
      <path fill="#000" d="M12 14a2 2 0 1 0 0-4 2 2 0 0 0 0 4Zm7 0a2 2 0 1 0 0-4 2 2 0 0 0 0 4ZM5 14a2 2 0 1 0 0-4 2 2 0 0 0 0 4Z"></path>
    </g>
    <defs>
      <clipPath id="a">
        <path fill="#fff" d="M0 0h24v24H0z"></path>
      </clipPath>
    </defs>
  </symbol>
  <symbol xmlns="http://www.w3.org/2000/svg" fill="none" viewBox="0 0 24 24" id="more-vertical-outline">
    <circle cx="12" cy="12" r="8.5" stroke="#000"></circle>
    <g clip-path="url(#a)">
      <path fill="#000" d="M12 13a1 1 0 1 0 0-2 1 1 0 0 0 0 2Zm0-3.5a1 1 0 1 0 0-2 1 1 0 0 0 0 2Zm0 7a1 1 0 1 0 0-2 1 1 0 0 0 0 2Z"></path>
    </g>
    <defs>
      <clipPath id="a">
        <path fill="#fff" d="M6 6h12v12H6z"></path>
      </clipPath>
    </defs>
  </symbol>
  <symbol xmlns="http://www.w3.org/2000/svg" fill="none" viewBox="0 0 24 24" id="Paid">
    <path fill="#397DF6" d="M11.365.521a1 1 0 0 1 1.27 0l2.14 1.758a1 1 0 0 0 .694.225l2.765-.164a1 1 0 0 1 1.026.746l.699 2.68a1 1 0 0 0 .429.59L22.72 7.85a1 1 0 0 1 .392 1.207l-1.01 2.58a1 1 0 0 0 0 .729l1.01 2.579a1 1 0 0 1-.392 1.207l-2.333 1.492a1 1 0 0 0-.429.59l-.698 2.68a1 1 0 0 1-1.027.747l-2.765-.164a1 1 0 0 0-.694.225l-2.14 1.758a1 1 0 0 1-1.27 0l-2.14-1.758a1 1 0 0 0-.694-.225l-2.765.164a1 1 0 0 1-1.027-.746l-.698-2.68a1 1 0 0 0-.429-.59L1.28 16.15a1 1 0 0 1-.392-1.207l1.01-2.58a1 1 0 0 0 0-.729L.887 9.056a1 1 0 0 1 .392-1.207l2.333-1.492a1 1 0 0 0 .429-.59l.698-2.68a1 1 0 0 1 1.027-.747l2.765.164a1 1 0 0 0 .694-.225L11.365.52Z"></path>
    <g clip-path="url(#a)">
      <path fill="#fff" d="M15.08 8.14a.667.667 0 0 0-.94.113l-4.667 6-2.286-2.786a.668.668 0 1 0-1.04.833l2.78 3.453a.666.666 0 0 0 .52.247.668.668 0 0 0 .553-.253l5.22-6.667a.667.667 0 0 0-.14-.94Zm3.333 0a.666.666 0 0 0-.94.113l-4.666 6-.407-.5-.84 1.08.733.914a.669.669 0 0 0 1.04-.007l5.22-6.667a.666.666 0 0 0-.14-.933Z"></path>
      <path fill="#fff" d="m9.807 12.707.86-1.08-.134-.16a.664.664 0 1 0-1.053.806l.327.434Z"></path>
    </g>
    <defs>
      <clipPath id="a">
        <path fill="#fff" d="M4 4h16v16H4z"></path>
      </clipPath>
    </defs>
  </symbol>
  <symbol xmlns="http://www.w3.org/2000/svg" fill="none" viewBox="0 0 24 24" id="paper-plane">
    <g clip-path="url(#a)">
      <path fill="#000" d="M21 4a1.307 1.307 0 0 0-.06-.27v-.09a1 1 0 0 0-.2-.3 1 1 0 0 0-.29-.19h-.09a.86.86 0 0 0-.31-.15H20a1 1 0 0 0-.3 0l-18 6a1 1 0 0 0 0 1.9l8.53 2.84 2.84 8.53a1 1 0 0 0 1.9 0l6-18c.022-.088.032-.179.03-.27Zm-4.7 2.29-5.57 5.57L5.16 10 16.3 6.29ZM14 18.84l-1.86-5.57 5.57-5.57L14 18.84Z"></path>
    </g>
    <defs>
      <clipPath id="a">
        <path fill="#fff" d="M0 0h24v24H0z"></path>
      </clipPath>
    </defs>
  </symbol>
  <symbol xmlns="http://www.w3.org/2000/svg" fill="none" viewBox="0 0 24 24" id="paper-plane-outline">
    <g clip-path="url(#a)">
      <path fill="#000" d="M21 4a1.307 1.307 0 0 0-.06-.27v-.09a1 1 0 0 0-.2-.3 1 1 0 0 0-.29-.19h-.09a.86.86 0 0 0-.31-.15H20a1 1 0 0 0-.3 0l-18 6a1 1 0 0 0 0 1.9l8.53 2.84 2.84 8.53a1 1 0 0 0 1.9 0l6-18c.022-.088.032-.179.03-.27Zm-4.7 2.29-5.57 5.57L5.16 10 16.3 6.29ZM14 18.84l-1.86-5.57 5.57-5.57L14 18.84Z"></path>
    </g>
    <defs>
      <clipPath id="a">
        <path fill="#fff" d="M0 0h24v24H0z"></path>
      </clipPath>
    </defs>
  </symbol>
  <symbol xmlns="http://www.w3.org/2000/svg" fill="none" viewBox="0 0 24 24" id="pause-circle">
    <g clip-path="url(#a)">
      <path fill="#000" d="M12 2a10 10 0 1 0 0 20 10 10 0 0 0 0-20Zm-2 13a1 1 0 1 1-2 0V9a1 1 0 0 1 2 0v6Zm6 0a1 1 0 0 1-2 0V9a1 1 0 0 1 2 0v6Z"></path>
    </g>
    <defs>
      <clipPath id="a">
        <path fill="#fff" d="M0 0h24v24H0z"></path>
      </clipPath>
    </defs>
  </symbol>
  <symbol xmlns="http://www.w3.org/2000/svg" fill="none" viewBox="0 0 24 24" id="pause-circle-outline">
    <g clip-path="url(#a)">
      <path fill="#000" d="M12 2a10 10 0 1 0 0 20 10 10 0 0 0 0-20Zm0 18a8 8 0 1 1 0-16.001A8 8 0 0 1 12 20Z"></path>
      <path fill="#000" d="M15 8a1 1 0 0 0-1 1v6a1 1 0 0 0 2 0V9a1 1 0 0 0-1-1ZM9 8a1 1 0 0 0-1 1v6a1 1 0 1 0 2 0V9a1 1 0 0 0-1-1Z"></path>
    </g>
    <defs>
      <clipPath id="a">
        <path fill="#fff" d="M0 0h24v24H0z"></path>
      </clipPath>
    </defs>
  </symbol>
  <symbol xmlns="http://www.w3.org/2000/svg" fill="none" viewBox="0 0 24 16" id="paypal-svgrepo-com (4)">
    <g clip-path="url(#a)">
      <path fill="#fff" stroke="#F3F3F3" d="M1.474.5h21.052c.55 0 .974.431.974.936v13.128c0 .505-.424.936-.974.936H1.474c-.55 0-.974-.431-.974-.936V1.436C.5.93.924.5 1.474.5Z"></path>
      <path fill="#28356A" fill-rule="evenodd" d="m10.86 8.106.104-.666-.232-.005H9.62l.773-4.912a.063.063 0 0 1 .063-.054h1.873c.622 0 1.052.13 1.276.387a.88.88 0 0 1 .204.384c.034.145.035.318.002.53l-.002.015v.136l.105.06a.739.739 0 0 1 .212.162c.09.103.148.233.173.388.025.16.017.35-.025.564a1.989 1.989 0 0 1-.23.637 1.31 1.31 0 0 1-.364.401c-.14.1-.305.174-.492.222a2.444 2.444 0 0 1-.613.072h-.146a.442.442 0 0 0-.434.37l-.01.06-.185 1.174-.009.043c-.002.014-.006.02-.011.025a.03.03 0 0 1-.02.007h-.9Z" clip-rule="evenodd"></path>
      <path fill="#298FC2" fill-rule="evenodd" d="M14.013 3.8a3.063 3.063 0 0 1-.02.11c-.246 1.273-1.092 1.713-2.172 1.713h-.55a.267.267 0 0 0-.263.227l-.362 2.298a.141.141 0 0 0 .14.163h.974a.235.235 0 0 0 .232-.198l.01-.05.183-1.169.012-.064a.235.235 0 0 1 .232-.198h.146c.945 0 1.684-.385 1.9-1.498.09-.465.044-.854-.195-1.127a.931.931 0 0 0-.267-.206Z" clip-rule="evenodd"></path>
      <path fill="#22284F" fill-rule="evenodd" d="M13.755 3.697a1.914 1.914 0 0 0-.24-.053 3.049 3.049 0 0 0-.486-.036h-1.468a.233.233 0 0 0-.232.2l-.313 1.984-.008.058a.267.267 0 0 1 .264-.227h.55c1.08 0 1.925-.44 2.172-1.712.007-.038.014-.074.019-.11a1.312 1.312 0 0 0-.258-.104Z" clip-rule="evenodd"></path>
      <path fill="#28356A" fill-rule="evenodd" d="M11.329 3.807a.234.234 0 0 1 .232-.198h1.469a3.049 3.049 0 0 1 .608.059 1.914 1.914 0 0 1 .172.047c.073.024.14.053.203.086.074-.47 0-.79-.254-1.08-.28-.32-.784-.456-1.43-.456h-1.873a.268.268 0 0 0-.265.227l-.78 4.962a.161.161 0 0 0 .158.186h1.157l.603-3.833Zm-5.991 5.65H3.972a.19.19 0 0 0-.188.16l-.553 3.514a.114.114 0 0 0 .113.132h.652a.19.19 0 0 0 .188-.16l.15-.948a.19.19 0 0 1 .187-.161h.432c.9 0 1.42-.437 1.555-1.303.061-.378.003-.676-.174-.884-.194-.23-.539-.35-.996-.35Zm.158 1.283c-.075.492-.45.492-.812.492h-.206l.145-.918a.114.114 0 0 1 .112-.097h.095c.246 0 .48 0 .6.141.071.085.093.21.066.382Zm3.961-.042h-.654a.114.114 0 0 0-.112.096l-.03.184-.045-.067c-.142-.206-.458-.275-.773-.275-.723 0-1.34.55-1.46 1.32-.063.384.026.752.243 1.008.2.235.485.334.824.334.583 0 .906-.376.906-.376l-.03.182a.114.114 0 0 0 .113.133h.59a.19.19 0 0 0 .187-.161l.354-2.246a.114.114 0 0 0-.113-.132Zm-.912 1.277a.73.73 0 0 1-.738.627c-.19 0-.342-.062-.44-.177a.56.56 0 0 1-.102-.461.733.733 0 0 1 .733-.632c.186 0 .337.062.437.179.1.118.139.283.11.464Zm4.347-1.221h-.658a.19.19 0 0 0-.157.084l-.907 1.34-.384-1.288a.19.19 0 0 0-.182-.136h-.646a.114.114 0 0 0-.109.151l.725 2.132-.681.964c-.054.075 0 .18.093.18h.656a.19.19 0 0 0 .156-.082l2.187-3.166a.114.114 0 0 0-.093-.179Z" clip-rule="evenodd"></path>
      <path fill="#298FC2" fill-rule="evenodd" d="M15.084 9.457h-1.367a.19.19 0 0 0-.187.16l-.553 3.514a.114.114 0 0 0 .113.132h.7a.133.133 0 0 0 .132-.112l.157-.996a.19.19 0 0 1 .187-.161h.432c.9 0 1.42-.437 1.556-1.303.061-.378.002-.676-.175-.884-.194-.23-.538-.35-.995-.35Zm.158 1.283c-.075.492-.45.492-.812.492h-.206l.145-.918a.113.113 0 0 1 .112-.097h.095c.246 0 .48 0 .6.141.071.085.093.21.066.382Zm3.96-.042h-.654a.113.113 0 0 0-.112.096l-.029.184-.046-.067c-.141-.206-.457-.275-.772-.275-.723 0-1.34.55-1.461 1.32-.062.384.026.752.244 1.008.2.235.484.334.824.334.582 0 .905-.376.905-.376l-.029.182a.114.114 0 0 0 .113.133h.589a.19.19 0 0 0 .187-.161l.354-2.246a.114.114 0 0 0-.113-.132Zm-.912 1.277a.73.73 0 0 1-.738.627c-.19 0-.342-.062-.44-.177a.561.561 0 0 1-.102-.461.733.733 0 0 1 .733-.632c.186 0 .337.062.437.179.1.118.14.283.11.464Zm1.63-2.422-.562 3.579a.114.114 0 0 0 .113.131h.564a.19.19 0 0 0 .187-.16l.553-3.514a.114.114 0 0 0-.112-.132h-.631a.114.114 0 0 0-.113.096Z" clip-rule="evenodd"></path>
    </g>
    <defs>
      <clipPath id="a">
        <path fill="#fff" d="M0 0h24v16H0z"></path>
      </clipPath>
    </defs>
  </symbol>
  <symbol xmlns="http://www.w3.org/2000/svg" fill="none" viewBox="0 0 24 24" id="person">
    <g clip-path="url(#a)">
      <path fill="#000" d="M12 11a4 4 0 1 0 0-8 4 4 0 0 0 0 8Zm6 10a1 1 0 0 0 1-1 7 7 0 1 0-14 0 1 1 0 0 0 1 1h12Z"></path>
    </g>
    <defs>
      <clipPath id="a">
        <path fill="#fff" d="M0 0h24v24H0z"></path>
      </clipPath>
    </defs>
  </symbol>
  <symbol xmlns="http://www.w3.org/2000/svg" fill="none" viewBox="0 0 24 24" id="person-add">
    <g clip-path="url(#a)">
      <path fill="#000" d="M21 6h-1V5a1 1 0 0 0-2 0v1h-1a1 1 0 1 0 0 2h1v1a1 1 0 0 0 2 0V8h1a1 1 0 1 0 0-2Zm-11 5a4 4 0 1 0 0-8 4 4 0 0 0 0 8Zm6 10a1 1 0 0 0 1-1 7 7 0 1 0-14 0 1 1 0 0 0 1 1"></path>
    </g>
    <defs>
      <clipPath id="a">
        <path fill="#fff" d="M0 0h24v24H0z"></path>
      </clipPath>
    </defs>
  </symbol>
  <symbol xmlns="http://www.w3.org/2000/svg" fill="none" viewBox="0 0 24 24" id="person-add-outline">
    <g clip-path="url(#a)">
      <path fill="#000" d="M21 6h-1V5a1 1 0 0 0-2 0v1h-1a1 1 0 1 0 0 2h1v1a1 1 0 0 0 2 0V8h1a1 1 0 1 0 0-2Zm-11 5a4 4 0 1 0 0-8 4 4 0 0 0 0 8Zm0-6a2 2 0 1 1 0 4 2 2 0 0 1 0-4Zm0 8a7 7 0 0 0-7 7 1 1 0 1 0 2 0 5 5 0 1 1 10 0 1 1 0 0 0 2 0 7 7 0 0 0-7-7Z"></path>
    </g>
    <defs>
      <clipPath id="a">
        <path fill="#fff" d="M0 0h24v24H0z"></path>
      </clipPath>
    </defs>
  </symbol>
  <symbol xmlns="http://www.w3.org/2000/svg" fill="none" viewBox="0 0 24 24" id="person-outline">
    <g clip-path="url(#a)">
      <path fill="#000" d="M12 11a4 4 0 1 0 0-8 4 4 0 0 0 0 8Zm0-6a2 2 0 1 1 0 4 2 2 0 0 1 0-4Zm0 8a7 7 0 0 0-7 7 1 1 0 1 0 2 0 5 5 0 1 1 10 0 1 1 0 0 0 2 0 7 7 0 0 0-7-7Z"></path>
    </g>
    <defs>
      <clipPath id="a">
        <path fill="#fff" d="M0 0h24v24H0z"></path>
      </clipPath>
    </defs>
  </symbol>
  <symbol xmlns="http://www.w3.org/2000/svg" fill="none" viewBox="0 0 24 24" id="person-remove">
    <g clip-path="url(#a)">
      <path fill="#000" d="M21 6h-4a1 1 0 1 0 0 2h4a1 1 0 1 0 0-2Zm-11 5a4 4 0 1 0 0-8 4 4 0 0 0 0 8Zm6 10a1 1 0 0 0 1-1 7 7 0 1 0-14 0 1 1 0 0 0 1 1"></path>
    </g>
    <defs>
      <clipPath id="a">
        <path fill="#fff" d="M0 0h24v24H0z"></path>
      </clipPath>
    </defs>
  </symbol>
  <symbol xmlns="http://www.w3.org/2000/svg" fill="none" viewBox="0 0 24 24" id="person-remove-outline">
    <g clip-path="url(#a)">
      <path fill="#000" d="M21 6h-4a1 1 0 1 0 0 2h4a1 1 0 1 0 0-2Zm-11 5a4 4 0 1 0 0-8 4 4 0 0 0 0 8Zm0-6a2 2 0 1 1 0 4 2 2 0 0 1 0-4Zm0 8a7 7 0 0 0-7 7 1 1 0 1 0 2 0 5 5 0 1 1 10 0 1 1 0 0 0 2 0 7 7 0 0 0-7-7Z"></path>
    </g>
    <defs>
      <clipPath id="a">
        <path fill="#fff" d="M0 0h24v24H0z"></path>
      </clipPath>
    </defs>
  </symbol>
  <symbol xmlns="http://www.w3.org/2000/svg" fill="none" viewBox="0 0 24 24" id="pin">
    <g clip-path="url(#a)">
      <path fill="#000" d="M12 11a1.5 1.5 0 1 0 0-3 1.5 1.5 0 0 0 0 3Z"></path>
      <path fill="#000" d="M12 2a8 8 0 0 0-8 7.92c0 5.48 7.05 11.58 7.35 11.84a1 1 0 0 0 1.3 0C13 21.5 20 15.4 20 9.92A8 8 0 0 0 12 2Zm0 11a3.5 3.5 0 1 1 0-7 3.5 3.5 0 0 1 0 7Z"></path>
    </g>
    <defs>
      <clipPath id="a">
        <path fill="#fff" d="M0 0h24v24H0z"></path>
      </clipPath>
    </defs>
  </symbol>
  <symbol xmlns="http://www.w3.org/2000/svg" fill="none" viewBox="0 0 24 24" id="pin-outline">
    <g clip-path="url(#a)">
      <path fill="#000" d="M12 2a8 8 0 0 0-8 7.92c0 5.48 7.05 11.58 7.35 11.84a1 1 0 0 0 1.3 0C13 21.5 20 15.4 20 9.92A8 8 0 0 0 12 2Zm0 17.65c-1.67-1.59-6-6-6-9.73a6 6 0 1 1 12 0c0 3.7-4.33 8.14-6 9.73Z"></path>
      <path fill="#000" d="M12 6a3.5 3.5 0 1 0 0 7 3.5 3.5 0 0 0 0-7Zm0 5a1.5 1.5 0 1 1 0-3 1.5 1.5 0 0 1 0 3Z"></path>
    </g>
    <defs>
      <clipPath id="a">
        <path fill="#fff" d="M0 0h24v24H0z"></path>
      </clipPath>
    </defs>
  </symbol>
  <symbol xmlns="http://www.w3.org/2000/svg" fill="none" viewBox="0 0 24 24" id="play-circle">
    <g clip-path="url(#a)">
      <path fill="#000" d="m11.5 14.6 2.81-2.6-2.81-2.6v5.2Z"></path>
      <path fill="#000" d="M12 2a10 10 0 1 0 0 20 10 10 0 0 0 0-20Zm4 11.18-3.64 3.37a1.74 1.74 0 0 1-1.16.45c-.238 0-.473-.052-.69-.15a1.6 1.6 0 0 1-1-1.48V8.63a1.6 1.6 0 0 1 1-1.48 1.7 1.7 0 0 1 1.85.3L16 10.82a1.6 1.6 0 0 1 0 2.36Z"></path>
    </g>
    <defs>
      <clipPath id="a">
        <path fill="#fff" d="M0 0h24v24H0z"></path>
      </clipPath>
    </defs>
  </symbol>
  <symbol xmlns="http://www.w3.org/2000/svg" fill="none" viewBox="0 0 24 24" id="play-circle-outline">
    <g clip-path="url(#a)">
      <path fill="#000" d="M12 2a10 10 0 1 0 0 20 10 10 0 0 0 0-20Zm0 18a8 8 0 1 1 0-16.001A8 8 0 0 1 12 20Z"></path>
      <path fill="#000" d="M12.34 7.45a1.7 1.7 0 0 0-1.85-.3 1.6 1.6 0 0 0-1 1.48v6.74a1.6 1.6 0 0 0 1 1.48c.217.098.452.15.69.15a1.74 1.74 0 0 0 1.16-.45L16 13.18a1.6 1.6 0 0 0 0-2.36l-3.66-3.37Zm-.84 7.15V9.4l2.81 2.6-2.81 2.6Z"></path>
    </g>
    <defs>
      <clipPath id="a">
        <path fill="#fff" d="M0 0h24v24H0z"></path>
      </clipPath>
    </defs>
  </symbol>
  <symbol xmlns="http://www.w3.org/2000/svg" fill="none" viewBox="0 0 24 24" id="plus-circle">
    <g clip-path="url(#a)">
      <path fill="#000" d="M12 2a10 10 0 1 0 0 20 10 10 0 0 0 0-20Zm3 11h-2v2a1 1 0 0 1-2 0v-2H9a1 1 0 0 1 0-2h2V9a1 1 0 0 1 2 0v2h2a1 1 0 0 1 0 2Z"></path>
    </g>
    <defs>
      <clipPath id="a">
        <path fill="#fff" d="M0 0h24v24H0z"></path>
      </clipPath>
    </defs>
  </symbol>
  <symbol xmlns="http://www.w3.org/2000/svg" fill="none" viewBox="0 0 24 24" id="plus-circle-outline">
    <g clip-path="url(#a)">
      <path fill="#000" d="M12 2a10 10 0 1 0 0 20 10 10 0 0 0 0-20Zm0 18a8 8 0 1 1 0-16 8 8 0 0 1 0 16Z"></path>
      <path fill="#000" d="M15 11h-2V9a1 1 0 0 0-2 0v2H9a1 1 0 0 0 0 2h2v2a1 1 0 0 0 2 0v-2h2a1 1 0 0 0 0-2Z"></path>
    </g>
    <defs>
      <clipPath id="a">
        <path fill="#fff" d="M0 0h24v24H0z"></path>
      </clipPath>
    </defs>
  </symbol>
  <symbol xmlns="http://www.w3.org/2000/svg" fill="none" viewBox="0 0 24 24" id="plus-square">
    <g clip-path="url(#a)">
      <path fill="#000" d="M18 3H6a3 3 0 0 0-3 3v12a3 3 0 0 0 3 3h12a3 3 0 0 0 3-3V6a3 3 0 0 0-3-3Zm-3 10h-2v2a1 1 0 0 1-2 0v-2H9a1 1 0 0 1 0-2h2V9a1 1 0 0 1 2 0v2h2a1 1 0 0 1 0 2Z"></path>
    </g>
    <defs>
      <clipPath id="a">
        <path fill="#fff" d="M0 0h24v24H0z"></path>
      </clipPath>
    </defs>
  </symbol>
  <symbol xmlns="http://www.w3.org/2000/svg" fill="none" viewBox="0 0 24 24" id="plus-square-outline">
    <g clip-path="url(#a)">
      <path fill="#000" d="M18 3H6a3 3 0 0 0-3 3v12a3 3 0 0 0 3 3h12a3 3 0 0 0 3-3V6a3 3 0 0 0-3-3Zm1 15a1 1 0 0 1-1 1H6a1 1 0 0 1-1-1V6a1 1 0 0 1 1-1h12a1 1 0 0 1 1 1v12Z"></path>
      <path fill="#000" d="M15 11h-2V9a1 1 0 0 0-2 0v2H9a1 1 0 0 0 0 2h2v2a1 1 0 0 0 2 0v-2h2a1 1 0 0 0 0-2Z"></path>
    </g>
    <defs>
      <clipPath id="a">
        <path fill="#fff" d="M0 0h24v24H0z"></path>
      </clipPath>
    </defs>
  </symbol>
  <symbol xmlns="http://www.w3.org/2000/svg" fill="none" viewBox="0 0 24 24" id="radio_button_checked">
    <g clip-path="url(#a)">
      <path fill="#000" d="M12 7c-2.76 0-5 2.24-5 5s2.24 5 5 5 5-2.24 5-5-2.24-5-5-5Zm0-5C6.48 2 2 6.48 2 12s4.48 10 10 10 10-4.48 10-10S17.52 2 12 2Zm0 18c-4.42 0-8-3.58-8-8s3.58-8 8-8 8 3.58 8 8-3.58 8-8 8Z"></path>
    </g>
    <defs>
      <clipPath id="a">
        <path fill="#fff" d="M0 0h24v24H0z"></path>
      </clipPath>
    </defs>
  </symbol>
  <symbol xmlns="http://www.w3.org/2000/svg" fill="none" viewBox="0 0 24 24" id="radio_button_unchecked">
    <g clip-path="url(#a)">
      <path fill="#000" d="M12 2C6.48 2 2 6.48 2 12s4.48 10 10 10 10-4.48 10-10S17.52 2 12 2Zm0 18c-4.42 0-8-3.58-8-8s3.58-8 8-8 8 3.58 8 8-3.58 8-8 8Z"></path>
    </g>
    <defs>
      <clipPath id="a">
        <path fill="#fff" d="M0 0h24v24H0z"></path>
      </clipPath>
    </defs>
  </symbol>
  <symbol xmlns="http://www.w3.org/2000/svg" fill="none" viewBox="0 0 24 24" id="RecaptchaLogo 1">
    <path fill="#1C3AA9" d="M18.72 9.93a6.86 6.86 0 0 0-.007-.288V4.204L17.21 5.707a6.698 6.698 0 0 0-5.2-2.468 6.699 6.699 0 0 0-5.346 2.655l2.465 2.49c.241-.447.584-.83.998-1.12.43-.336 1.04-.61 1.883-.61.102 0 .18.012.238.034a3.25 3.25 0 0 1 2.484 1.496L12.988 9.93c2.21-.01 4.706-.014 5.732 0"></path>
    <path fill="#4285F4" d="M11.971 3.24c-.096 0-.192.002-.288.006H6.245L7.748 4.75a6.697 6.697 0 0 0-2.468 5.2 6.699 6.699 0 0 0 2.655 5.345l2.49-2.464a3.265 3.265 0 0 1-1.12-.999c-.336-.43-.61-1.04-.61-1.883 0-.102.012-.18.034-.238a3.25 3.25 0 0 1 1.496-2.484l1.745 1.745c-.01-2.21-.014-4.706 0-5.732"></path>
    <path fill="#ABABAB" d="M5.28 9.949c0 .096.003.192.007.288v5.438l1.504-1.503a6.697 6.697 0 0 0 5.2 2.468 6.7 6.7 0 0 0 5.345-2.655l-2.464-2.49c-.242.447-.585.83-.999 1.12-.43.336-1.04.61-1.883.61a.673.673 0 0 1-.238-.034 3.25 3.25 0 0 1-2.484-1.496l1.744-1.745c-2.21.01-4.705.014-5.731 0"></path>
    <path fill="#A6A6A6" d="M6.412 19.238c-.163 0-.31.031-.44.093a.911.911 0 0 0-.329.26c-.089.113-.157.25-.205.41-.046.16-.07.338-.07.535v.569c0 .198.024.377.07.536.048.16.116.296.203.408a.893.893 0 0 0 .736.351c.159 0 .298-.023.418-.07a.804.804 0 0 0 .492-.522c.046-.125.072-.267.08-.427h-.39c-.01.123-.027.228-.051.315a.573.573 0 0 1-.106.214.403.403 0 0 1-.177.122.806.806 0 0 1-.266.038.532.532 0 0 1-.288-.074.58.58 0 0 1-.192-.207 1.046 1.046 0 0 1-.106-.306 2.127 2.127 0 0 1-.032-.378v-.573c0-.145.013-.277.038-.395a.934.934 0 0 1 .12-.303.563.563 0 0 1 .495-.262.63.63 0 0 1 .244.043.395.395 0 0 1 .169.126.59.59 0 0 1 .103.216c.024.087.04.191.049.313h.39a1.525 1.525 0 0 0-.077-.442.924.924 0 0 0-.189-.323.777.777 0 0 0-.293-.199 1.07 1.07 0 0 0-.396-.068Zm9.545 0c-.164 0-.31.031-.44.093a.912.912 0 0 0-.33.26c-.088.113-.157.25-.204.41-.047.16-.07.338-.07.535v.569c0 .198.023.377.07.536.047.16.115.296.202.408a.892.892 0 0 0 .736.351c.16 0 .299-.023.418-.07a.805.805 0 0 0 .493-.522c.045-.125.072-.267.08-.427h-.39a1.74 1.74 0 0 1-.052.315.574.574 0 0 1-.105.214.403.403 0 0 1-.178.122.806.806 0 0 1-.266.038.532.532 0 0 1-.288-.074.58.58 0 0 1-.192-.207 1.045 1.045 0 0 1-.106-.306 2.122 2.122 0 0 1-.031-.378v-.573c0-.145.012-.277.038-.395a.934.934 0 0 1 .12-.303.562.562 0 0 1 .495-.262.63.63 0 0 1 .243.043.395.395 0 0 1 .169.126c.045.057.08.129.104.216.023.087.04.191.048.313h.391a1.527 1.527 0 0 0-.078-.442.924.924 0 0 0-.188-.323.778.778 0 0 0-.294-.199 1.07 1.07 0 0 0-.395-.068Zm-7.317.043-.991 3.077h.397l.24-.803h1.039l.243.803h.397l-.993-3.077H8.64Zm1.744 0v3.077h.386v-1.205h.594c.148 0 .28-.02.393-.061a.745.745 0 0 0 .465-.473 1.2 1.2 0 0 0 .062-.398c0-.137-.02-.262-.062-.376a.783.783 0 0 0-.465-.494 1.035 1.035 0 0 0-.393-.07h-.98Zm2.195 0v.334h.808v2.743h.387v-2.743h.809v-.334h-2.004Zm4.855 0v3.077h.387v-1.423h1.238v1.423h.39V19.28h-.39v1.323h-1.238V19.28h-.387Zm3.48 0-.99 3.077h.397l.239-.803h1.04l.243.803h.397l-.993-3.077h-.332Zm-10.144.334h.594c.095 0 .175.017.241.05a.457.457 0 0 1 .165.136.542.542 0 0 1 .095.196.865.865 0 0 1 0 .47.505.505 0 0 1-.095.187.43.43 0 0 1-.165.123.588.588 0 0 1-.24.044h-.595v-1.206Zm-1.965.207.42 1.399h-.838l.418-1.4Zm12.275 0 .42 1.399h-.839l.419-1.4Zm-18.205.207a.428.428 0 0 0-.252.074.591.591 0 0 0-.173.2l-.006-.232H2.08v2.287h.374v-1.636a.542.542 0 0 1 .15-.23.374.374 0 0 1 .252-.085.797.797 0 0 1 .169.015l-.002-.364a.13.13 0 0 0-.028-.008.423.423 0 0 0-.082-.017.19.19 0 0 0-.038-.004Zm1.257 0a.888.888 0 0 0-.315.057.687.687 0 0 0-.27.188.967.967 0 0 0-.188.338 1.568 1.568 0 0 0-.072.51v.257c0 .175.02.326.061.455.041.128.1.234.176.319a.722.722 0 0 0 .28.186c.11.04.234.061.37.061a1.075 1.075 0 0 0 .474-.106.733.733 0 0 0 .268-.236l-.194-.237a.687.687 0 0 1-.216.188.607.607 0 0 1-.31.072.491.491 0 0 1-.4-.167c-.091-.111-.137-.29-.137-.535v-.053h1.276v-.217a2.16 2.16 0 0 0-.044-.463.924.924 0 0 0-.141-.338.614.614 0 0 0-.25-.207.856.856 0 0 0-.368-.072Zm0 .321a.42.42 0 0 1 .203.044c.054.03.096.072.127.125a.575.575 0 0 1 .07.193c.015.073.025.154.03.242v.051h-.9a1.28 1.28 0 0 1 .046-.319.568.568 0 0 1 .099-.2.338.338 0 0 1 .146-.106.526.526 0 0 1 .18-.03Z"></path>
  </symbol>
  <symbol xmlns="http://www.w3.org/2000/svg" fill="none" viewBox="0 0 24 24" id="search">
    <g clip-path="url(#a)">
      <path fill="#000" d="m20.71 19.29-3.4-3.39A7.92 7.92 0 0 0 19 11a8 8 0 1 0-8 8 7.92 7.92 0 0 0 4.9-1.69l3.39 3.4a1.002 1.002 0 0 0 1.639-.325 1 1 0 0 0-.219-1.095ZM5 11a6 6 0 1 1 12 0 6 6 0 0 1-12 0Z"></path>
    </g>
    <defs>
      <clipPath id="a">
        <path fill="#fff" d="M0 0h24v24H0z"></path>
      </clipPath>
    </defs>
  </symbol>
  <symbol xmlns="http://www.w3.org/2000/svg" fill="none" viewBox="0 0 24 24" id="search-outline">
    <g clip-path="url(#a)">
      <path fill="#000" d="m20.71 19.29-3.4-3.39A7.92 7.92 0 0 0 19 11a8 8 0 1 0-8 8 7.92 7.92 0 0 0 4.9-1.69l3.39 3.4a1.002 1.002 0 0 0 1.639-.325 1 1 0 0 0-.219-1.095ZM5 11a6 6 0 1 1 12 0 6 6 0 0 1-12 0Z"></path>
    </g>
    <defs>
      <clipPath id="a">
        <path fill="#fff" d="M0 0h24v24H0z"></path>
      </clipPath>
    </defs>
  </symbol>
  <symbol xmlns="http://www.w3.org/2000/svg" fill="none" viewBox="0 0 24 24" id="settings">
    <g clip-path="url(#a)">
      <path fill="#000" d="M12 13.5a1.5 1.5 0 1 0 0-3 1.5 1.5 0 0 0 0 3Z"></path>
      <path fill="#000" d="M21.89 10.32 21.1 7.8a2.26 2.26 0 0 0-2.88-1.51l-.34.11a1.74 1.74 0 0 1-1.59-.26l-.11-.08a1.76 1.76 0 0 1-.69-1.43v-.28a2.37 2.37 0 0 0-.68-1.68 2.26 2.26 0 0 0-1.6-.67h-2.55a2.32 2.32 0 0 0-2.29 2.33v.24a1.94 1.94 0 0 1-.73 1.51l-.13.1a1.93 1.93 0 0 1-1.78.29 2.14 2.14 0 0 0-1.68.12 2.18 2.18 0 0 0-1.12 1.33l-.82 2.6a2.34 2.34 0 0 0 1.48 2.94h.16a1.83 1.83 0 0 1 1.12 1.22l.06.16a2.06 2.06 0 0 1-.23 1.86 2.37 2.37 0 0 0 .49 3.3l2.07 1.57a2.25 2.25 0 0 0 1.35.43A2 2 0 0 0 9 22a2.25 2.25 0 0 0 1.47-1l.23-.33a1.8 1.8 0 0 1 1.43-.77 1.75 1.75 0 0 1 1.5.78l.12.17a2.24 2.24 0 0 0 3.22.53L19 19.86a2.38 2.38 0 0 0 .5-3.23l-.26-.38A2 2 0 0 1 19 14.6a1.89 1.89 0 0 1 1.21-1.28l.2-.07a2.36 2.36 0 0 0 1.48-2.93ZM12 15.5a3.5 3.5 0 1 1 0-7 3.5 3.5 0 0 1 0 7Z"></path>
    </g>
    <defs>
      <clipPath id="a">
        <path fill="#fff" d="M0 0h24v24H0z"></path>
      </clipPath>
    </defs>
  </symbol>
  <symbol xmlns="http://www.w3.org/2000/svg" fill="none" viewBox="0 0 24 24" id="settings-outline">
    <g clip-path="url(#a)">
      <path fill="#000" d="M8.61 22a2.25 2.25 0 0 1-1.35-.46L5.19 20a2.37 2.37 0 0 1-.49-3.22 2.06 2.06 0 0 0 .23-1.86l-.06-.16a1.83 1.83 0 0 0-1.12-1.22h-.16a2.34 2.34 0 0 1-1.48-2.94L2.93 8a2.18 2.18 0 0 1 1.948-1.642c.288-.02.578.017.852.112a1.93 1.93 0 0 0 1.78-.29l.13-.1a1.94 1.94 0 0 0 .73-1.51v-.24A2.32 2.32 0 0 1 10.66 2h2.55a2.26 2.26 0 0 1 1.6.67 2.37 2.37 0 0 1 .68 1.68v.28a1.76 1.76 0 0 0 .69 1.43l.11.08a1.74 1.74 0 0 0 1.59.26l.34-.11A2.26 2.26 0 0 1 21.1 7.8l.79 2.52a2.36 2.36 0 0 1-1.46 2.93l-.2.07A1.889 1.889 0 0 0 19 14.6a1.999 1.999 0 0 0 .25 1.65l.26.38a2.38 2.38 0 0 1-.5 3.23L17 21.41a2.241 2.241 0 0 1-3.22-.53l-.12-.17a1.75 1.75 0 0 0-1.5-.78 1.8 1.8 0 0 0-1.43.77l-.23.33A2.25 2.25 0 0 1 9 22a2 2 0 0 1-.39 0ZM4.4 11.62a3.83 3.83 0 0 1 2.38 2.5v.12a4 4 0 0 1-.46 3.62.38.38 0 0 0 0 .51L8.47 20a.251.251 0 0 0 .37-.07l.23-.33a3.77 3.77 0 0 1 6.2 0l.12.18a.3.3 0 0 0 .18.12.25.25 0 0 0 .19-.05l2.06-1.56a.36.36 0 0 0 .07-.49l-.26-.38A4 4 0 0 1 17.1 14a3.92 3.92 0 0 1 2.49-2.61l.2-.07a.34.34 0 0 0 .19-.44l-.78-2.49a.35.35 0 0 0-.2-.19.21.21 0 0 0-.19 0l-.34.11a3.74 3.74 0 0 1-3.43-.57L15 7.65a3.76 3.76 0 0 1-1.49-3v-.31a.37.37 0 0 0-.1-.26.31.31 0 0 0-.21-.08h-2.54a.31.31 0 0 0-.29.33v.25a3.9 3.9 0 0 1-1.52 3.09l-.13.1a3.91 3.91 0 0 1-3.63.59.22.22 0 0 0-.14 0 .28.28 0 0 0-.12.15L4 11.12a.36.36 0 0 0 .22.45l.18.05Z"></path>
      <path fill="#000" d="M12 15.5a3.5 3.5 0 1 1 0-7 3.5 3.5 0 0 1 0 7Zm0-5a1.5 1.5 0 1 0 0 3 1.5 1.5 0 0 0 0-3Z"></path>
    </g>
    <defs>
      <clipPath id="a">
        <path fill="#fff" d="M0 0h24v24H0z"></path>
      </clipPath>
    </defs>
  </symbol>
  <symbol xmlns="http://www.w3.org/2000/svg" fill="none" viewBox="0 0 24 24" id="star">
    <g clip-path="url(#a)">
      <path fill="#000" d="M17.56 21a1 1 0 0 1-.46-.11L12 18.22l-5.1 2.67a1 1 0 0 1-1.45-1.06l1-5.63-4.12-4a1 1 0 0 1-.25-1 1 1 0 0 1 .81-.68l5.7-.83 2.51-5.13a1 1 0 0 1 1.8 0l2.54 5.12 5.7.83a1 1 0 0 1 .81.68 1 1 0 0 1-.25 1l-4.12 4 1 5.63a1 1 0 0 1-.4 1 1 1 0 0 1-.62.18Z"></path>
    </g>
    <defs>
      <clipPath id="a">
        <path fill="#fff" d="M0 0h24v24H0z"></path>
      </clipPath>
    </defs>
  </symbol>
  <symbol xmlns="http://www.w3.org/2000/svg" fill="none" viewBox="0 0 24 24" id="star-outline">
    <g clip-path="url(#a)">
      <path fill="#000" d="M17.56 21a1 1 0 0 1-.46-.11L12 18.22l-5.1 2.67a1 1 0 0 1-1.45-1.06l1-5.63-4.12-4a1 1 0 0 1-.25-1 1 1 0 0 1 .81-.68l5.7-.83 2.51-5.13a1 1 0 0 1 1.8 0l2.54 5.12 5.7.83a1 1 0 0 1 .81.68 1 1 0 0 1-.25 1l-4.12 4 1 5.63a1 1 0 0 1-.4 1 1 1 0 0 1-.62.18ZM12 16.1a.92.92 0 0 1 .46.11l3.77 2-.72-4.21a1 1 0 0 1 .29-.89l3-2.93-4.2-.62a1 1 0 0 1-.71-.56L12 5.25 10.11 9a1 1 0 0 1-.75.54l-4.2.62 3 2.93a1 1 0 0 1 .29.89l-.72 4.16 3.77-2a.92.92 0 0 1 .5-.04Z"></path>
    </g>
    <defs>
      <clipPath id="a">
        <path fill="#fff" d="M0 0h24v24H0z"></path>
      </clipPath>
    </defs>
  </symbol>
  <symbol xmlns="http://www.w3.org/2000/svg" fill="none" viewBox="0 0 24 16" id="stripe-svgrepo-com (4)">
    <g clip-path="url(#a)">
      <path fill="#fff" stroke="#F3F3F3" d="M1.913.5h20.174c.79 0 1.413.625 1.413 1.372v12.256c0 .748-.622 1.372-1.413 1.372H1.913C1.123 15.5.5 14.876.5 14.128V1.872C.5 1.124 1.122.5 1.913.5Z"></path>
      <path fill="#6461FC" fill-rule="evenodd" d="m12.727 5.354-1.22.262v-.988l1.22-.257v.983Zm2.535.548c-.476 0-.782.223-.952.378l-.063-.3h-1.069v5.65l1.214-.258.005-1.37c.175.125.433.304.86.304.87 0 1.661-.697 1.661-2.233-.005-1.405-.806-2.171-1.656-2.171ZM14.97 9.24c-.286 0-.456-.101-.573-.227l-.005-1.798c.127-.14.302-.237.579-.237.441 0 .748.494.748 1.129 0 .649-.302 1.133-.748 1.133Zm5.776-1.119c0-1.24-.603-2.219-1.754-2.219-1.156 0-1.855.979-1.855 2.21 0 1.458.826 2.194 2.01 2.194.579 0 1.016-.13 1.346-.315v-.969a2.58 2.58 0 0 1-1.19.267c-.471 0-.889-.165-.942-.737h2.375l.004-.157c.003-.095.006-.207.006-.274Zm-2.4-.46c0-.548.335-.775.641-.775.297 0 .612.227.612.775h-1.253Zm-6.839-1.677h1.22v4.24h-1.22v-4.24Zm-1.384 0 .078.359c.287-.523.855-.417 1.01-.359V7.1c-.15-.054-.636-.121-.923.252v2.873H9.074v-4.24h1.05Zm-2.35-1.051-1.186.252-.005 3.88c0 .718.54 1.246 1.258 1.246.399 0 .69-.072.85-.16v-.983c-.155.063-.923.286-.923-.432v-1.72h.923V5.984h-.923l.005-1.051Zm-2.871 2.02c-.258 0-.413.073-.413.262 0 .206.267.297.6.41.54.183 1.252.425 1.255 1.32 0 .867-.694 1.366-1.705 1.366-.417 0-.874-.082-1.326-.276V8.882c.408.223.923.387 1.326.387.272 0 .467-.072.467-.295 0-.229-.29-.333-.64-.46-.533-.191-1.206-.434-1.206-1.24 0-.858.656-1.372 1.642-1.372.403 0 .801.063 1.204.223v1.138a2.715 2.715 0 0 0-1.204-.31Z" clip-rule="evenodd"></path>
    </g>
    <defs>
      <clipPath id="a">
        <path fill="#fff" d="M0 0h24v16H0z"></path>
      </clipPath>
    </defs>
  </symbol>
  <symbol xmlns="http://www.w3.org/2000/svg" fill="none" viewBox="0 0 24 24" id="trash">
    <g clip-path="url(#a)">
      <path fill="#000" d="M21 6h-5V4.33A2.42 2.42 0 0 0 13.5 2h-3A2.42 2.42 0 0 0 8 4.33V6H3a1 1 0 0 0 0 2h1v11a3 3 0 0 0 3 3h10a3 3 0 0 0 3-3V8h1a1 1 0 1 0 0-2ZM10 4.33c0-.16.21-.33.5-.33h3c.29 0 .5.17.5.33V6h-4V4.33Z"></path>
    </g>
    <defs>
      <clipPath id="a">
        <path fill="#fff" d="M0 0h24v24H0z"></path>
      </clipPath>
    </defs>
  </symbol>
  <symbol xmlns="http://www.w3.org/2000/svg" fill="none" viewBox="0 0 24 24" id="trash-outline">
    <g clip-path="url(#a)">
      <path fill="#000" d="M21 6h-5V4.33A2.42 2.42 0 0 0 13.5 2h-3A2.42 2.42 0 0 0 8 4.33V6H3a1 1 0 0 0 0 2h1v11a3 3 0 0 0 3 3h10a3 3 0 0 0 3-3V8h1a1 1 0 1 0 0-2ZM10 4.33c0-.16.21-.33.5-.33h3c.29 0 .5.17.5.33V6h-4V4.33ZM18 19a1 1 0 0 1-1 1H7a1 1 0 0 1-1-1V8h12v11Z"></path>
    </g>
    <defs>
      <clipPath id="a">
        <path fill="#fff" d="M0 0h24v24H0z"></path>
      </clipPath>
    </defs>
  </symbol>
  <symbol xmlns="http://www.w3.org/2000/svg" fill="none" viewBox="0 0 24 24" id="trending-up">
    <g clip-path="url(#a)">
      <path fill="#000" d="M21 7c.01-.07.01-.14 0-.21a.639.639 0 0 0-.05-.17 1.097 1.097 0 0 0-.09-.14.748.748 0 0 0-.14-.17l-.12-.07a.689.689 0 0 0-.19-.1h-.2A.7.7 0 0 0 20 6h-5a1 1 0 1 0 0 2h2.83l-4 4.71-4.32-2.57a1 1 0 0 0-1.28.22l-5 6A1 1 0 0 0 4 18a1 1 0 0 0 .77-.36l4.45-5.34 4.27 2.56a1 1 0 0 0 1.27-.21L19 9.7V12a1 1 0 0 0 2 0V7Z"></path>
    </g>
    <defs>
      <clipPath id="a">
        <path fill="#fff" d="M0 0h24v24H0z"></path>
      </clipPath>
    </defs>
  </symbol>
  <symbol xmlns="http://www.w3.org/2000/svg" fill="none" viewBox="0 0 24 24" id="trending-up-outline">
    <g clip-path="url(#a)">
      <path fill="#000" d="M21 7c.01-.07.01-.14 0-.21a.639.639 0 0 0-.05-.17 1.097 1.097 0 0 0-.09-.14.748.748 0 0 0-.14-.17l-.12-.07a.689.689 0 0 0-.19-.1h-.2A.7.7 0 0 0 20 6h-5a1 1 0 1 0 0 2h2.83l-4 4.71-4.32-2.57a1 1 0 0 0-1.28.22l-5 6A1 1 0 0 0 4 18a1 1 0 0 0 .77-.36l4.45-5.34 4.27 2.56a1 1 0 0 0 1.27-.21L19 9.7V12a1 1 0 0 0 2 0V7Z"></path>
    </g>
    <defs>
      <clipPath id="a">
        <path fill="#fff" d="M0 0h24v24H0z"></path>
      </clipPath>
    </defs>
  </symbol>
</svg>